<mxfile host="Electron" agent="Mozilla/5.0 (Windows NT 10.0; Win64; x64) AppleWebKit/537.36 (KHTML, like Gecko) draw.io/25.0.2 Chrome/128.0.6613.186 Electron/32.2.5 Safari/537.36" locked="false" version="25.0.2" pages="10">
  <diagram id="NhFwWqMQYfxVTpJ-UrhH" name="Home">
    <mxGraphModel dx="6635" dy="2230" grid="1" gridSize="10" guides="1" tooltips="1" connect="1" arrows="1" fold="1" page="1" pageScale="1" pageWidth="1920" pageHeight="1080" math="0" shadow="0">
      <root>
        <mxCell id="0" />
        <mxCell id="1" parent="0" />
        <mxCell id="qxyy4CaxYONW8MwyeVJZ-1" value="" style="strokeWidth=1;shadow=0;dashed=0;align=center;html=1;shape=mxgraph.mockup.containers.browserWindow;rSize=0;strokeColor=#C4C4C4;strokeColor2=#008cff;strokeColor3=#c4c4c4;mainText=,;recursiveResize=0;fillColor=default;comic=0;deletable=1;backgroundOutline=0;fontSize=15;fontFamily=Helvetica;" vertex="1" parent="1">
          <mxGeometry x="-1880" y="40" width="1920" height="1080" as="geometry" />
        </mxCell>
        <mxCell id="qxyy4CaxYONW8MwyeVJZ-2" value="ICPC Tehran" style="strokeWidth=1;shadow=0;dashed=0;align=center;html=1;shape=mxgraph.mockup.containers.anchor;fontSize=17;fontColor=#666666;align=left;whiteSpace=wrap;fontFamily=Helvetica;strokeColor=#C4C4C4;" vertex="1" parent="qxyy4CaxYONW8MwyeVJZ-1">
          <mxGeometry x="60" y="12" width="110" height="26" as="geometry" />
        </mxCell>
        <mxCell id="qxyy4CaxYONW8MwyeVJZ-3" value="https://www.icpc-tehran.ir" style="strokeWidth=1;shadow=0;dashed=0;align=center;html=1;shape=mxgraph.mockup.containers.anchor;rSize=0;fontSize=17;fontColor=#666666;align=left;fontFamily=Helvetica;strokeColor=#C4C4C4;" vertex="1" parent="qxyy4CaxYONW8MwyeVJZ-1">
          <mxGeometry x="130" y="60" width="250" height="26" as="geometry" />
        </mxCell>
        <mxCell id="qxyy4CaxYONW8MwyeVJZ-4" value="&lt;font style=&quot;font-size: 16px;&quot;&gt;Sign up / Profile&lt;/font&gt;" style="shape=rectangle;strokeColor=#C4C4C4;fillColor=none;linkText=;fontSize=17;fontColor=#000000;fontStyle=0;html=1;align=center;labelBackgroundColor=none;rounded=0;shadow=0;glass=0;verticalAlign=middle;arcSize=50;fontFamily=Helvetica;strokeWidth=1;" vertex="1" parent="qxyy4CaxYONW8MwyeVJZ-1">
          <mxGeometry x="1650" y="160" width="120" height="40" as="geometry" />
        </mxCell>
        <mxCell id="qxyy4CaxYONW8MwyeVJZ-5" value="&lt;h1 style=&quot;margin-top: 0px;&quot;&gt;&lt;font style=&quot;font-size: 96px;&quot;&gt;Title&lt;/font&gt;&lt;/h1&gt;&lt;p&gt;&lt;font style=&quot;font-size: 24px;&quot;&gt;Lorem ipsum dolor sit amet, consectetur adipisicing elit, sed do eiusmod tem por incididunt ut labore et dolore magna aliqua.&lt;/font&gt;&lt;/p&gt;" style="text;html=1;whiteSpace=wrap;overflow=hidden;rounded=0;fontFamily=Helvetica;strokeColor=none;" vertex="1" parent="qxyy4CaxYONW8MwyeVJZ-1">
          <mxGeometry x="150" y="240" width="600" height="380" as="geometry" />
        </mxCell>
        <mxCell id="qxyy4CaxYONW8MwyeVJZ-6" value="&lt;font style=&quot;font-size: 16px;&quot;&gt;&lt;font style=&quot;&quot;&gt;Sign in&amp;nbsp;&lt;/font&gt;&lt;span style=&quot;background-color: initial;&quot;&gt;/ Sign out&lt;/span&gt;&lt;/font&gt;" style="shape=rectangle;strokeColor=#C4C4C4;fillColor=none;linkText=;fontSize=17;fontColor=#000000;fontStyle=0;html=1;align=center;labelBackgroundColor=none;rounded=0;shadow=0;glass=0;verticalAlign=middle;arcSize=50;fontFamily=Helvetica;" vertex="1" parent="qxyy4CaxYONW8MwyeVJZ-1">
          <mxGeometry x="1520" y="160" width="120" height="40" as="geometry" />
        </mxCell>
        <mxCell id="qxyy4CaxYONW8MwyeVJZ-7" value="&lt;font style=&quot;font-size: 16px;&quot;&gt;Logo&lt;/font&gt;" style="verticalLabelPosition=bottom;shadow=0;dashed=0;align=center;html=1;verticalAlign=top;strokeWidth=1;shape=mxgraph.mockup.graphics.simpleIcon;strokeColor=#C4C4C4;connectable=1;fillColor=none;fontFamily=Helvetica;" vertex="1" parent="qxyy4CaxYONW8MwyeVJZ-1">
          <mxGeometry x="150" y="160" width="40" height="40" as="geometry" />
        </mxCell>
        <mxCell id="qxyy4CaxYONW8MwyeVJZ-8" value="&lt;span style=&quot;font-size: 16px;&quot;&gt;Contests&lt;/span&gt;" style="shape=rectangle;strokeColor=#C4C4C4;fillColor=none;linkText=;fontSize=17;fontColor=#000000;fontStyle=0;html=1;align=center;labelBackgroundColor=none;rounded=0;shadow=0;glass=0;verticalAlign=middle;arcSize=50;fontFamily=Helvetica;" vertex="1" parent="qxyy4CaxYONW8MwyeVJZ-1">
          <mxGeometry x="200" y="160" width="120" height="40" as="geometry" />
        </mxCell>
        <mxCell id="qxyy4CaxYONW8MwyeVJZ-10" value="&lt;font style=&quot;font-size: 16px;&quot;&gt;Background&lt;/font&gt;" style="shape=mxgraph.mockup.markup.scratchOut;shadow=0;dashed=0;html=1;whiteSpace=wrap;strokeColor=#C4C4C4;strokeWidth=2;" vertex="1" parent="qxyy4CaxYONW8MwyeVJZ-1">
          <mxGeometry x="860" y="490" width="200" height="100" as="geometry" />
        </mxCell>
      </root>
    </mxGraphModel>
  </diagram>
  <diagram id="5l3dwOP8RvpGSDf8k0nj" name="Sign up">
    <mxGraphModel dx="6635" dy="4390" grid="1" gridSize="10" guides="1" tooltips="1" connect="1" arrows="1" fold="1" page="1" pageScale="1" pageWidth="1920" pageHeight="1080" math="0" shadow="0">
      <root>
        <mxCell id="0" />
        <mxCell id="1" parent="0" />
        <mxCell id="Jhx0VhuM5ZHiygkUntqj-1" value="" style="strokeWidth=1;shadow=0;dashed=0;align=center;html=1;shape=mxgraph.mockup.containers.browserWindow;rSize=0;strokeColor=#C4C4C4;strokeColor2=#008cff;strokeColor3=#c4c4c4;mainText=,;recursiveResize=0;fillColor=default;comic=0;deletable=1;backgroundOutline=0;fontSize=15;fontFamily=Helvetica;" vertex="1" parent="1">
          <mxGeometry x="-1880" y="-2120" width="1920" height="1080" as="geometry" />
        </mxCell>
        <mxCell id="Jhx0VhuM5ZHiygkUntqj-2" value="ICPC Tehran" style="strokeWidth=1;shadow=0;dashed=0;align=center;html=1;shape=mxgraph.mockup.containers.anchor;fontSize=17;fontColor=#666666;align=left;whiteSpace=wrap;fontFamily=Helvetica;strokeColor=#C4C4C4;" vertex="1" parent="Jhx0VhuM5ZHiygkUntqj-1">
          <mxGeometry x="60" y="12" width="110" height="26" as="geometry" />
        </mxCell>
        <mxCell id="Jhx0VhuM5ZHiygkUntqj-3" value="https://www.icpc-tehran.ir" style="strokeWidth=1;shadow=0;dashed=0;align=center;html=1;shape=mxgraph.mockup.containers.anchor;rSize=0;fontSize=17;fontColor=#666666;align=left;fontFamily=Helvetica;strokeColor=#C4C4C4;" vertex="1" parent="Jhx0VhuM5ZHiygkUntqj-1">
          <mxGeometry x="130" y="60" width="250" height="26" as="geometry" />
        </mxCell>
        <mxCell id="Jhx0VhuM5ZHiygkUntqj-4" value="&lt;font style=&quot;font-size: 16px;&quot;&gt;Sign up / Profile&lt;/font&gt;" style="shape=rectangle;strokeColor=#C4C4C4;fillColor=default;linkText=;fontSize=17;fontColor=#000000;fontStyle=0;html=1;align=center;labelBackgroundColor=none;rounded=0;shadow=0;glass=0;verticalAlign=middle;arcSize=50;fontFamily=Helvetica;strokeWidth=1;" vertex="1" parent="Jhx0VhuM5ZHiygkUntqj-1">
          <mxGeometry x="1650" y="160" width="120" height="40" as="geometry" />
        </mxCell>
        <mxCell id="Jhx0VhuM5ZHiygkUntqj-5" value="&lt;font style=&quot;font-size: 16px;&quot;&gt;Sign in / Sign out&lt;/font&gt;" style="shape=rectangle;strokeColor=#C4C4C4;fillColor=none;linkText=;fontSize=17;fontColor=#000000;fontStyle=0;html=1;align=center;labelBackgroundColor=none;rounded=0;shadow=0;glass=0;verticalAlign=middle;arcSize=50;fontFamily=Helvetica;" vertex="1" parent="Jhx0VhuM5ZHiygkUntqj-1">
          <mxGeometry x="1520" y="160" width="120" height="40" as="geometry" />
        </mxCell>
        <mxCell id="Jhx0VhuM5ZHiygkUntqj-6" value="&lt;font style=&quot;font-size: 16px;&quot;&gt;Logo&lt;/font&gt;" style="verticalLabelPosition=bottom;shadow=0;dashed=0;align=center;html=1;verticalAlign=top;strokeWidth=1;shape=mxgraph.mockup.graphics.simpleIcon;strokeColor=#C4C4C4;connectable=1;fillColor=none;fontFamily=Helvetica;" vertex="1" parent="Jhx0VhuM5ZHiygkUntqj-1">
          <mxGeometry x="150" y="160" width="40" height="40" as="geometry" />
        </mxCell>
        <mxCell id="Jhx0VhuM5ZHiygkUntqj-7" value="&lt;span style=&quot;font-size: 16px;&quot;&gt;Contests&lt;/span&gt;" style="shape=rectangle;strokeColor=#C4C4C4;fillColor=none;linkText=;fontSize=17;fontColor=#000000;fontStyle=0;html=1;align=center;labelBackgroundColor=none;rounded=0;shadow=0;glass=0;verticalAlign=middle;arcSize=50;fontFamily=Helvetica;" vertex="1" parent="Jhx0VhuM5ZHiygkUntqj-1">
          <mxGeometry x="200" y="160" width="120" height="40" as="geometry" />
        </mxCell>
        <mxCell id="Jhx0VhuM5ZHiygkUntqj-9" value="" style="strokeWidth=1;shadow=0;dashed=0;align=center;html=1;shape=mxgraph.mockup.forms.rrect;rSize=0;strokeColor=none;fillColor=none;fontFamily=Georgia;" vertex="1" parent="Jhx0VhuM5ZHiygkUntqj-1">
          <mxGeometry x="805" y="325" width="310" height="430" as="geometry" />
        </mxCell>
        <mxCell id="Jhx0VhuM5ZHiygkUntqj-10" value="&lt;font style=&quot;font-size: 24px;&quot;&gt;Sign up&lt;/font&gt;" style="strokeWidth=1;shadow=0;dashed=0;align=center;html=1;shape=mxgraph.mockup.forms.anchor;fontSize=16;fontColor=#000000;align=left;resizeWidth=1;spacingLeft=0;movable=1;resizable=1;rotatable=1;deletable=1;editable=1;locked=0;connectable=1;horizontal=1;verticalAlign=middle;" vertex="1" parent="Jhx0VhuM5ZHiygkUntqj-9">
          <mxGeometry width="290" height="30" relative="1" as="geometry">
            <mxPoint x="10" y="10" as="offset" />
          </mxGeometry>
        </mxCell>
        <mxCell id="Jhx0VhuM5ZHiygkUntqj-11" value="&lt;font style=&quot;font-size: 16px;&quot;&gt;Username&lt;/font&gt;" style="strokeWidth=1;shadow=0;dashed=0;align=center;html=1;shape=mxgraph.mockup.forms.anchor;fontSize=12;fontColor=#000000;align=left;resizeWidth=1;spacingLeft=0;strokeColor=#000000;" vertex="1" parent="Jhx0VhuM5ZHiygkUntqj-9">
          <mxGeometry width="155" height="30" relative="1" as="geometry">
            <mxPoint x="10" y="50" as="offset" />
          </mxGeometry>
        </mxCell>
        <mxCell id="Jhx0VhuM5ZHiygkUntqj-12" value="&lt;font style=&quot;font-size: 16px;&quot;&gt;thisis_mahyar&lt;/font&gt;" style="strokeWidth=1;shadow=0;dashed=0;align=center;html=1;shape=mxgraph.mockup.forms.rrect;rSize=0;strokeColor=#C4C4C4;fontColor=#000000;align=left;spacingLeft=5;resizeWidth=1;" vertex="1" parent="Jhx0VhuM5ZHiygkUntqj-9">
          <mxGeometry width="200" height="30" relative="1" as="geometry">
            <mxPoint x="10" y="80" as="offset" />
          </mxGeometry>
        </mxCell>
        <mxCell id="Jhx0VhuM5ZHiygkUntqj-13" value="&lt;font style=&quot;font-size: 16px;&quot;&gt;Email&lt;/font&gt;" style="strokeWidth=1;shadow=0;dashed=0;align=center;html=1;shape=mxgraph.mockup.forms.anchor;fontSize=12;fontColor=#000000;align=left;resizeWidth=1;spacingLeft=0;" vertex="1" parent="Jhx0VhuM5ZHiygkUntqj-9">
          <mxGeometry width="155" height="30" relative="1" as="geometry">
            <mxPoint x="10" y="130" as="offset" />
          </mxGeometry>
        </mxCell>
        <mxCell id="Jhx0VhuM5ZHiygkUntqj-14" value="&lt;font style=&quot;font-size: 16px;&quot;&gt;mahyarstate@gmail.com&lt;/font&gt;" style="strokeWidth=1;shadow=0;dashed=0;align=center;html=1;shape=mxgraph.mockup.forms.rrect;rSize=0;strokeColor=#C4C4C4;fontColor=#000000;align=left;spacingLeft=5;resizeWidth=1;verticalAlign=middle;" vertex="1" parent="Jhx0VhuM5ZHiygkUntqj-9">
          <mxGeometry width="200" height="30" relative="1" as="geometry">
            <mxPoint x="10" y="160" as="offset" />
          </mxGeometry>
        </mxCell>
        <mxCell id="Jhx0VhuM5ZHiygkUntqj-15" value="SIGN UP" style="strokeWidth=1;shadow=0;dashed=0;align=center;html=1;shape=mxgraph.mockup.forms.rrect;rSize=5;strokeColor=none;fontColor=#ffffff;fillColor=#66bbff;fontSize=16;fontStyle=1;" vertex="1" parent="Jhx0VhuM5ZHiygkUntqj-9">
          <mxGeometry y="1" width="80" height="30" relative="1" as="geometry">
            <mxPoint x="10" y="-50" as="offset" />
          </mxGeometry>
        </mxCell>
        <mxCell id="Jhx0VhuM5ZHiygkUntqj-16" value="&lt;font style=&quot;font-size: 16px;&quot;&gt;Password&lt;/font&gt;" style="strokeWidth=1;shadow=0;dashed=0;align=center;html=1;shape=mxgraph.mockup.forms.anchor;fontSize=12;fontColor=#000000;align=left;resizeWidth=1;spacingLeft=0;" vertex="1" parent="Jhx0VhuM5ZHiygkUntqj-9">
          <mxGeometry x="10" y="210" width="155" height="30" as="geometry" />
        </mxCell>
        <mxCell id="Jhx0VhuM5ZHiygkUntqj-17" value="&lt;font style=&quot;font-size: 16px;&quot;&gt;********&lt;/font&gt;" style="strokeWidth=1;shadow=0;dashed=0;align=center;html=1;shape=mxgraph.mockup.forms.rrect;rSize=0;strokeColor=#C4C4C4;fontColor=#000000;align=left;spacingLeft=5;resizeWidth=1;verticalAlign=middle;" vertex="1" parent="Jhx0VhuM5ZHiygkUntqj-9">
          <mxGeometry x="10" y="240" width="200" height="30" as="geometry" />
        </mxCell>
        <mxCell id="Jhx0VhuM5ZHiygkUntqj-18" value="&lt;font style=&quot;font-size: 16px;&quot;&gt;Confirm password&lt;/font&gt;" style="strokeWidth=1;shadow=0;dashed=0;align=center;html=1;shape=mxgraph.mockup.forms.anchor;fontSize=12;fontColor=#000000;align=left;resizeWidth=1;spacingLeft=0;" vertex="1" parent="Jhx0VhuM5ZHiygkUntqj-9">
          <mxGeometry x="10" y="290" width="155" height="30" as="geometry" />
        </mxCell>
        <mxCell id="Jhx0VhuM5ZHiygkUntqj-19" value="&lt;font style=&quot;font-size: 16px;&quot;&gt;********&lt;/font&gt;" style="strokeWidth=1;shadow=0;dashed=0;align=center;html=1;shape=mxgraph.mockup.forms.rrect;rSize=0;strokeColor=#C4C4C4;fontColor=#000000;align=left;spacingLeft=5;resizeWidth=1;verticalAlign=middle;" vertex="1" parent="Jhx0VhuM5ZHiygkUntqj-9">
          <mxGeometry x="10" y="320" width="200" height="30" as="geometry" />
        </mxCell>
      </root>
    </mxGraphModel>
  </diagram>
  <diagram id="UwKrgyvbbzcj5F92cguX" name="Sign in">
    <mxGraphModel dx="4715" dy="2230" grid="1" gridSize="10" guides="1" tooltips="1" connect="1" arrows="1" fold="1" page="1" pageScale="1" pageWidth="1920" pageHeight="1080" math="0" shadow="0">
      <root>
        <mxCell id="0" />
        <mxCell id="1" parent="0" />
        <mxCell id="Vcxzgo62oUMsaI_Tg9s4-1" value="" style="strokeWidth=1;shadow=0;dashed=0;align=center;html=1;shape=mxgraph.mockup.containers.browserWindow;rSize=0;strokeColor=#C4C4C4;strokeColor2=#008cff;strokeColor3=#c4c4c4;mainText=,;recursiveResize=0;fillColor=default;comic=0;deletable=1;backgroundOutline=0;fontSize=15;fontFamily=Helvetica;" vertex="1" parent="1">
          <mxGeometry x="40" y="40" width="1920" height="1080" as="geometry" />
        </mxCell>
        <mxCell id="Vcxzgo62oUMsaI_Tg9s4-2" value="ICPC Tehran" style="strokeWidth=1;shadow=0;dashed=0;align=center;html=1;shape=mxgraph.mockup.containers.anchor;fontSize=17;fontColor=#666666;align=left;whiteSpace=wrap;fontFamily=Helvetica;strokeColor=#C4C4C4;" vertex="1" parent="Vcxzgo62oUMsaI_Tg9s4-1">
          <mxGeometry x="60" y="12" width="110" height="26" as="geometry" />
        </mxCell>
        <mxCell id="Vcxzgo62oUMsaI_Tg9s4-3" value="https://www.icpc-tehran.ir" style="strokeWidth=1;shadow=0;dashed=0;align=center;html=1;shape=mxgraph.mockup.containers.anchor;rSize=0;fontSize=17;fontColor=#666666;align=left;fontFamily=Helvetica;strokeColor=#C4C4C4;" vertex="1" parent="Vcxzgo62oUMsaI_Tg9s4-1">
          <mxGeometry x="130" y="60" width="250" height="26" as="geometry" />
        </mxCell>
        <mxCell id="Vcxzgo62oUMsaI_Tg9s4-4" value="&lt;font style=&quot;font-size: 16px;&quot;&gt;Sign up / Profile&lt;/font&gt;" style="shape=rectangle;strokeColor=#C4C4C4;fillColor=none;linkText=;fontSize=17;fontColor=#000000;fontStyle=0;html=1;align=center;labelBackgroundColor=none;rounded=0;shadow=0;glass=0;verticalAlign=middle;arcSize=50;fontFamily=Helvetica;strokeWidth=1;" vertex="1" parent="Vcxzgo62oUMsaI_Tg9s4-1">
          <mxGeometry x="1650" y="160" width="120" height="40" as="geometry" />
        </mxCell>
        <mxCell id="Vcxzgo62oUMsaI_Tg9s4-5" value="&lt;font style=&quot;font-size: 16px;&quot;&gt;Sign in / Sign out&lt;/font&gt;" style="shape=rectangle;strokeColor=#C4C4C4;fillColor=none;linkText=;fontSize=17;fontColor=#000000;fontStyle=0;html=1;align=center;labelBackgroundColor=none;rounded=0;shadow=0;glass=0;verticalAlign=middle;arcSize=50;fontFamily=Helvetica;" vertex="1" parent="Vcxzgo62oUMsaI_Tg9s4-1">
          <mxGeometry x="1520" y="160" width="120" height="40" as="geometry" />
        </mxCell>
        <mxCell id="Vcxzgo62oUMsaI_Tg9s4-6" value="&lt;font style=&quot;font-size: 16px;&quot;&gt;Logo&lt;/font&gt;" style="verticalLabelPosition=bottom;shadow=0;dashed=0;align=center;html=1;verticalAlign=top;strokeWidth=1;shape=mxgraph.mockup.graphics.simpleIcon;strokeColor=#C4C4C4;connectable=1;fillColor=none;fontFamily=Helvetica;" vertex="1" parent="Vcxzgo62oUMsaI_Tg9s4-1">
          <mxGeometry x="150" y="160" width="40" height="40" as="geometry" />
        </mxCell>
        <mxCell id="Vcxzgo62oUMsaI_Tg9s4-7" value="&lt;span style=&quot;font-size: 16px;&quot;&gt;Contests&lt;/span&gt;" style="shape=rectangle;strokeColor=#C4C4C4;fillColor=none;linkText=;fontSize=17;fontColor=#000000;fontStyle=0;html=1;align=center;labelBackgroundColor=none;rounded=0;shadow=0;glass=0;verticalAlign=middle;arcSize=50;fontFamily=Helvetica;" vertex="1" parent="Vcxzgo62oUMsaI_Tg9s4-1">
          <mxGeometry x="200" y="160" width="120" height="40" as="geometry" />
        </mxCell>
        <mxCell id="Vcxzgo62oUMsaI_Tg9s4-9" value="" style="strokeWidth=1;shadow=0;dashed=0;align=center;html=1;shape=mxgraph.mockup.forms.rrect;rSize=0;strokeColor=none;fillColor=none;fontFamily=Georgia;" vertex="1" parent="Vcxzgo62oUMsaI_Tg9s4-1">
          <mxGeometry x="805" y="410" width="310" height="260" as="geometry" />
        </mxCell>
        <mxCell id="Vcxzgo62oUMsaI_Tg9s4-10" value="&lt;font style=&quot;font-size: 24px;&quot;&gt;Sign in&lt;/font&gt;" style="strokeWidth=1;shadow=0;dashed=0;align=center;html=1;shape=mxgraph.mockup.forms.anchor;fontSize=16;fontColor=#000000;align=left;resizeWidth=1;spacingLeft=0;movable=1;resizable=1;rotatable=1;deletable=1;editable=1;locked=0;connectable=1;horizontal=1;verticalAlign=middle;" vertex="1" parent="Vcxzgo62oUMsaI_Tg9s4-9">
          <mxGeometry width="290" height="30" relative="1" as="geometry">
            <mxPoint x="10" y="10" as="offset" />
          </mxGeometry>
        </mxCell>
        <mxCell id="Vcxzgo62oUMsaI_Tg9s4-11" value="&lt;font style=&quot;font-size: 16px;&quot;&gt;Username&lt;/font&gt;" style="strokeWidth=1;shadow=0;dashed=0;align=center;html=1;shape=mxgraph.mockup.forms.anchor;fontSize=12;fontColor=#000000;align=left;resizeWidth=1;spacingLeft=0;strokeColor=#000000;" vertex="1" parent="Vcxzgo62oUMsaI_Tg9s4-9">
          <mxGeometry width="155" height="30" relative="1" as="geometry">
            <mxPoint x="10" y="50" as="offset" />
          </mxGeometry>
        </mxCell>
        <mxCell id="Vcxzgo62oUMsaI_Tg9s4-12" value="&lt;font style=&quot;font-size: 16px;&quot;&gt;thisis_mahyar&lt;/font&gt;" style="strokeWidth=1;shadow=0;dashed=0;align=center;html=1;shape=mxgraph.mockup.forms.rrect;rSize=0;strokeColor=#C4C4C4;fontColor=#000000;align=left;spacingLeft=5;resizeWidth=1;" vertex="1" parent="Vcxzgo62oUMsaI_Tg9s4-9">
          <mxGeometry width="200" height="30" relative="1" as="geometry">
            <mxPoint x="10" y="80" as="offset" />
          </mxGeometry>
        </mxCell>
        <mxCell id="Vcxzgo62oUMsaI_Tg9s4-13" value="&lt;font style=&quot;font-size: 16px;&quot;&gt;Password&lt;/font&gt;" style="strokeWidth=1;shadow=0;dashed=0;align=center;html=1;shape=mxgraph.mockup.forms.anchor;fontSize=12;fontColor=#000000;align=left;resizeWidth=1;spacingLeft=0;" vertex="1" parent="Vcxzgo62oUMsaI_Tg9s4-9">
          <mxGeometry width="155" height="30" relative="1" as="geometry">
            <mxPoint x="10" y="130" as="offset" />
          </mxGeometry>
        </mxCell>
        <mxCell id="Vcxzgo62oUMsaI_Tg9s4-14" value="&lt;font style=&quot;font-size: 16px;&quot;&gt;********&lt;/font&gt;" style="strokeWidth=1;shadow=0;dashed=0;align=center;html=1;shape=mxgraph.mockup.forms.rrect;rSize=0;strokeColor=#C4C4C4;fontColor=#000000;align=left;spacingLeft=5;resizeWidth=1;verticalAlign=middle;" vertex="1" parent="Vcxzgo62oUMsaI_Tg9s4-9">
          <mxGeometry width="200" height="30" relative="1" as="geometry">
            <mxPoint x="10" y="160" as="offset" />
          </mxGeometry>
        </mxCell>
        <mxCell id="Vcxzgo62oUMsaI_Tg9s4-15" value="SIGN IN" style="strokeWidth=1;shadow=0;dashed=0;align=center;html=1;shape=mxgraph.mockup.forms.rrect;rSize=5;strokeColor=none;fontColor=#ffffff;fillColor=#66bbff;fontSize=16;fontStyle=1;" vertex="1" parent="Vcxzgo62oUMsaI_Tg9s4-9">
          <mxGeometry y="1" width="80" height="30" relative="1" as="geometry">
            <mxPoint x="10" y="-40" as="offset" />
          </mxGeometry>
        </mxCell>
        <mxCell id="BENI2ccJBu_T8lNZ6NGX-1" value="&lt;span style=&quot;color: rgb(0, 0, 0); font-family: &amp;quot;Comic Sans MS&amp;quot;; font-size: 16px; font-style: normal; font-variant-ligatures: normal; font-variant-caps: normal; font-weight: 400; letter-spacing: normal; orphans: 2; text-indent: 0px; text-transform: none; widows: 2; word-spacing: 0px; -webkit-text-stroke-width: 0px; white-space: normal; text-decoration-thickness: initial; text-decoration-style: initial; text-decoration-color: initial; float: none; display: inline !important;&quot;&gt;For this version, there is no link in sign in form to sign up form. Y&lt;/span&gt;&lt;span style=&quot;font-family: &amp;quot;Comic Sans MS&amp;quot;; font-size: 16px;&quot;&gt;ou can sign up from navigation bar.&lt;/span&gt;" style="shape=note;whiteSpace=wrap;html=1;backgroundOutline=1;darkOpacity=0.05;align=left;verticalAlign=top;spacingRight=40;spacingLeft=8;spacingBottom=8;spacingTop=8;fillColor=#f8cecc;strokeColor=#b85450;" vertex="1" parent="1">
          <mxGeometry x="2000" y="40" width="280" height="120" as="geometry" />
        </mxCell>
      </root>
    </mxGraphModel>
  </diagram>
  <diagram id="zrw0uj522RWOjOEadtq6" name="Profile">
    <mxGraphModel dx="4715" dy="2230" grid="1" gridSize="10" guides="1" tooltips="1" connect="1" arrows="1" fold="1" page="1" pageScale="1" pageWidth="1920" pageHeight="1080" math="0" shadow="0">
      <root>
        <mxCell id="0" />
        <mxCell id="1" parent="0" />
        <mxCell id="Wp5L86byp1PW0JcDCClr-1" value="" style="strokeWidth=1;shadow=0;dashed=0;align=center;html=1;shape=mxgraph.mockup.containers.browserWindow;rSize=0;strokeColor=#C4C4C4;strokeColor2=#008cff;strokeColor3=#c4c4c4;mainText=,;recursiveResize=0;fillColor=default;comic=0;deletable=1;backgroundOutline=0;fontSize=15;fontFamily=Helvetica;" vertex="1" parent="1">
          <mxGeometry x="40" y="40" width="1920" height="1080" as="geometry" />
        </mxCell>
        <mxCell id="Wp5L86byp1PW0JcDCClr-2" value="ICPC Tehran" style="strokeWidth=1;shadow=0;dashed=0;align=center;html=1;shape=mxgraph.mockup.containers.anchor;fontSize=17;fontColor=#666666;align=left;whiteSpace=wrap;fontFamily=Helvetica;strokeColor=#C4C4C4;" vertex="1" parent="Wp5L86byp1PW0JcDCClr-1">
          <mxGeometry x="60" y="12" width="110" height="26" as="geometry" />
        </mxCell>
        <mxCell id="Wp5L86byp1PW0JcDCClr-3" value="https://www.icpc-tehran.ir" style="strokeWidth=1;shadow=0;dashed=0;align=center;html=1;shape=mxgraph.mockup.containers.anchor;rSize=0;fontSize=17;fontColor=#666666;align=left;fontFamily=Helvetica;strokeColor=#C4C4C4;" vertex="1" parent="Wp5L86byp1PW0JcDCClr-1">
          <mxGeometry x="130" y="60" width="250" height="26" as="geometry" />
        </mxCell>
        <mxCell id="Wp5L86byp1PW0JcDCClr-4" value="&lt;font style=&quot;font-size: 16px;&quot;&gt;Sign up / Profile&lt;/font&gt;" style="shape=rectangle;strokeColor=#C4C4C4;fillColor=none;linkText=;fontSize=17;fontColor=#000000;fontStyle=0;html=1;align=center;labelBackgroundColor=none;rounded=0;shadow=0;glass=0;verticalAlign=middle;arcSize=50;fontFamily=Helvetica;strokeWidth=1;" vertex="1" parent="Wp5L86byp1PW0JcDCClr-1">
          <mxGeometry x="1650" y="160" width="120" height="40" as="geometry" />
        </mxCell>
        <mxCell id="Wp5L86byp1PW0JcDCClr-5" value="&lt;font style=&quot;font-size: 16px;&quot;&gt;Sign in / Sign out&lt;/font&gt;" style="shape=rectangle;strokeColor=#C4C4C4;fillColor=none;linkText=;fontSize=17;fontColor=#000000;fontStyle=0;html=1;align=center;labelBackgroundColor=none;rounded=0;shadow=0;glass=0;verticalAlign=middle;arcSize=50;fontFamily=Helvetica;" vertex="1" parent="Wp5L86byp1PW0JcDCClr-1">
          <mxGeometry x="1520" y="160" width="120" height="40" as="geometry" />
        </mxCell>
        <mxCell id="Wp5L86byp1PW0JcDCClr-6" value="&lt;font style=&quot;font-size: 16px;&quot;&gt;Logo&lt;/font&gt;" style="verticalLabelPosition=bottom;shadow=0;dashed=0;align=center;html=1;verticalAlign=top;strokeWidth=1;shape=mxgraph.mockup.graphics.simpleIcon;strokeColor=#C4C4C4;connectable=1;fillColor=none;fontFamily=Helvetica;" vertex="1" parent="Wp5L86byp1PW0JcDCClr-1">
          <mxGeometry x="150" y="160" width="40" height="40" as="geometry" />
        </mxCell>
        <mxCell id="Wp5L86byp1PW0JcDCClr-7" value="&lt;span style=&quot;font-size: 16px;&quot;&gt;Contests&lt;/span&gt;" style="shape=rectangle;strokeColor=#C4C4C4;fillColor=none;linkText=;fontSize=17;fontColor=#000000;fontStyle=0;html=1;align=center;labelBackgroundColor=none;rounded=0;shadow=0;glass=0;verticalAlign=middle;arcSize=50;fontFamily=Helvetica;" vertex="1" parent="Wp5L86byp1PW0JcDCClr-1">
          <mxGeometry x="200" y="160" width="120" height="40" as="geometry" />
        </mxCell>
        <mxCell id="Wp5L86byp1PW0JcDCClr-17" value="" style="verticalLabelPosition=bottom;shadow=0;dashed=0;align=center;html=1;verticalAlign=top;strokeWidth=1;shape=mxgraph.mockup.misc.loading_circle_1;pointerEvents=1" vertex="1" parent="Wp5L86byp1PW0JcDCClr-1">
          <mxGeometry x="915" y="495" width="90" height="90" as="geometry" />
        </mxCell>
      </root>
    </mxGraphModel>
  </diagram>
  <diagram id="4J-Sln8L1DukXmF68sEF" name="Contests">
    <mxGraphModel dx="1886" dy="892" grid="1" gridSize="10" guides="1" tooltips="1" connect="1" arrows="1" fold="1" page="1" pageScale="1" pageWidth="1920" pageHeight="1080" math="0" shadow="0">
      <root>
        <mxCell id="0" />
        <mxCell id="1" parent="0" />
        <mxCell id="ssX3Y0Y6o9wibVtlf6H6-1" value="" style="strokeWidth=1;shadow=0;dashed=0;align=center;html=1;shape=mxgraph.mockup.containers.browserWindow;rSize=0;strokeColor=#C4C4C4;strokeColor2=#008cff;strokeColor3=#c4c4c4;mainText=,;recursiveResize=0;fillColor=default;comic=0;deletable=1;backgroundOutline=0;fontSize=15;fontFamily=Helvetica;" parent="1" vertex="1">
          <mxGeometry x="40" y="40" width="1920" height="1080" as="geometry" />
        </mxCell>
        <mxCell id="ssX3Y0Y6o9wibVtlf6H6-2" value="ICPC Tehran" style="strokeWidth=1;shadow=0;dashed=0;align=center;html=1;shape=mxgraph.mockup.containers.anchor;fontSize=17;fontColor=#666666;align=left;whiteSpace=wrap;fontFamily=Helvetica;strokeColor=#C4C4C4;" parent="ssX3Y0Y6o9wibVtlf6H6-1" vertex="1">
          <mxGeometry x="60" y="12" width="110" height="26" as="geometry" />
        </mxCell>
        <mxCell id="ssX3Y0Y6o9wibVtlf6H6-3" value="https://www.icpc-tehran.ir" style="strokeWidth=1;shadow=0;dashed=0;align=center;html=1;shape=mxgraph.mockup.containers.anchor;rSize=0;fontSize=17;fontColor=#666666;align=left;fontFamily=Helvetica;strokeColor=#C4C4C4;" parent="ssX3Y0Y6o9wibVtlf6H6-1" vertex="1">
          <mxGeometry x="130" y="60" width="250" height="26" as="geometry" />
        </mxCell>
        <mxCell id="ssX3Y0Y6o9wibVtlf6H6-4" value="&lt;font style=&quot;font-size: 16px;&quot;&gt;Sign up / Profile&lt;/font&gt;" style="shape=rectangle;strokeColor=#C4C4C4;fillColor=none;linkText=;fontSize=17;fontColor=#000000;fontStyle=0;html=1;align=center;labelBackgroundColor=none;rounded=0;shadow=0;glass=0;verticalAlign=middle;arcSize=50;fontFamily=Helvetica;strokeWidth=1;" parent="ssX3Y0Y6o9wibVtlf6H6-1" vertex="1">
          <mxGeometry x="1650" y="160" width="120" height="40" as="geometry" />
        </mxCell>
        <mxCell id="ssX3Y0Y6o9wibVtlf6H6-5" value="&lt;font style=&quot;font-size: 16px;&quot;&gt;Sign in / Sign out&lt;/font&gt;" style="shape=rectangle;strokeColor=#C4C4C4;fillColor=none;linkText=;fontSize=17;fontColor=#000000;fontStyle=0;html=1;align=center;labelBackgroundColor=none;rounded=0;shadow=0;glass=0;verticalAlign=middle;arcSize=50;fontFamily=Helvetica;" parent="ssX3Y0Y6o9wibVtlf6H6-1" vertex="1">
          <mxGeometry x="1520" y="160" width="120" height="40" as="geometry" />
        </mxCell>
        <mxCell id="ssX3Y0Y6o9wibVtlf6H6-6" value="&lt;font style=&quot;font-size: 16px;&quot;&gt;Logo&lt;/font&gt;" style="verticalLabelPosition=bottom;shadow=0;dashed=0;align=center;html=1;verticalAlign=top;strokeWidth=1;shape=mxgraph.mockup.graphics.simpleIcon;strokeColor=#C4C4C4;connectable=1;fillColor=none;fontFamily=Helvetica;" parent="ssX3Y0Y6o9wibVtlf6H6-1" vertex="1">
          <mxGeometry x="150" y="160" width="40" height="40" as="geometry" />
        </mxCell>
        <mxCell id="ssX3Y0Y6o9wibVtlf6H6-7" value="&lt;span style=&quot;font-size: 16px;&quot;&gt;Contests&lt;/span&gt;" style="shape=rectangle;strokeColor=#C4C4C4;fillColor=none;linkText=;fontSize=17;fontColor=#000000;fontStyle=0;html=1;align=center;labelBackgroundColor=none;rounded=0;shadow=0;glass=0;verticalAlign=middle;arcSize=50;fontFamily=Helvetica;" parent="ssX3Y0Y6o9wibVtlf6H6-1" vertex="1">
          <mxGeometry x="200" y="160" width="120" height="40" as="geometry" />
        </mxCell>
        <mxCell id="gxjwXqbjO09iN7vLRab0-9" value="&lt;font style=&quot;font-size: 16px;&quot;&gt;Icon&lt;/font&gt;" style="verticalLabelPosition=bottom;shadow=0;dashed=0;align=center;html=1;verticalAlign=top;strokeWidth=1;shape=mxgraph.mockup.graphics.simpleIcon;strokeColor=#C4C4C4;connectable=1;fillColor=none;fontFamily=Helvetica;" parent="ssX3Y0Y6o9wibVtlf6H6-1" vertex="1">
          <mxGeometry x="150" y="400" width="60" height="60" as="geometry" />
        </mxCell>
        <mxCell id="gxjwXqbjO09iN7vLRab0-10" value="&lt;span style=&quot;font-size: 16px;&quot;&gt;Contest name&lt;/span&gt;&lt;div&gt;&lt;font style=&quot;font-size: 12px;&quot;&gt;Number of problems&lt;/font&gt;&lt;/div&gt;" style="shape=rectangle;strokeColor=#C4C4C4;fillColor=none;linkText=;fontSize=17;fontColor=#000000;fontStyle=0;html=1;align=left;labelBackgroundColor=none;rounded=0;shadow=0;glass=0;verticalAlign=middle;arcSize=50;fontFamily=Helvetica;spacing=8;" parent="ssX3Y0Y6o9wibVtlf6H6-1" vertex="1">
          <mxGeometry x="230" y="400" width="240" height="60" as="geometry" />
        </mxCell>
        <mxCell id="gxjwXqbjO09iN7vLRab0-13" value="&lt;font style=&quot;font-size: 16px;&quot;&gt;Icon&lt;/font&gt;" style="verticalLabelPosition=bottom;shadow=0;dashed=0;align=center;html=1;verticalAlign=top;strokeWidth=1;shape=mxgraph.mockup.graphics.simpleIcon;strokeColor=#C4C4C4;connectable=1;fillColor=none;fontFamily=Helvetica;" parent="ssX3Y0Y6o9wibVtlf6H6-1" vertex="1">
          <mxGeometry x="150" y="500" width="60" height="60" as="geometry" />
        </mxCell>
        <mxCell id="gxjwXqbjO09iN7vLRab0-14" value="&lt;span style=&quot;font-size: 16px;&quot;&gt;Contest name&lt;/span&gt;&lt;div&gt;&lt;font style=&quot;font-size: 12px;&quot;&gt;Number of problems&lt;/font&gt;&lt;/div&gt;" style="shape=rectangle;strokeColor=#C4C4C4;fillColor=none;linkText=;fontSize=17;fontColor=#000000;fontStyle=0;html=1;align=left;labelBackgroundColor=none;rounded=0;shadow=0;glass=0;verticalAlign=middle;arcSize=50;fontFamily=Helvetica;spacing=8;" parent="ssX3Y0Y6o9wibVtlf6H6-1" vertex="1">
          <mxGeometry x="230" y="500" width="240" height="60" as="geometry" />
        </mxCell>
        <mxCell id="gxjwXqbjO09iN7vLRab0-15" value="&lt;font style=&quot;font-size: 16px;&quot;&gt;Icon&lt;/font&gt;" style="verticalLabelPosition=bottom;shadow=0;dashed=0;align=center;html=1;verticalAlign=top;strokeWidth=1;shape=mxgraph.mockup.graphics.simpleIcon;strokeColor=#C4C4C4;connectable=1;fillColor=none;fontFamily=Helvetica;" parent="ssX3Y0Y6o9wibVtlf6H6-1" vertex="1">
          <mxGeometry x="150" y="600" width="60" height="60" as="geometry" />
        </mxCell>
        <mxCell id="gxjwXqbjO09iN7vLRab0-16" value="&lt;span style=&quot;font-size: 16px;&quot;&gt;Contest name&lt;/span&gt;&lt;div&gt;&lt;font style=&quot;font-size: 12px;&quot;&gt;Number of problems&lt;/font&gt;&lt;/div&gt;" style="shape=rectangle;strokeColor=#C4C4C4;fillColor=none;linkText=;fontSize=17;fontColor=#000000;fontStyle=0;html=1;align=left;labelBackgroundColor=none;rounded=0;shadow=0;glass=0;verticalAlign=middle;arcSize=50;fontFamily=Helvetica;spacing=8;" parent="ssX3Y0Y6o9wibVtlf6H6-1" vertex="1">
          <mxGeometry x="230" y="600" width="240" height="60" as="geometry" />
        </mxCell>
        <mxCell id="gxjwXqbjO09iN7vLRab0-17" value="&lt;font style=&quot;font-size: 16px;&quot;&gt;Icon&lt;/font&gt;" style="verticalLabelPosition=bottom;shadow=0;dashed=0;align=center;html=1;verticalAlign=top;strokeWidth=1;shape=mxgraph.mockup.graphics.simpleIcon;strokeColor=#C4C4C4;connectable=1;fillColor=none;fontFamily=Helvetica;" parent="ssX3Y0Y6o9wibVtlf6H6-1" vertex="1">
          <mxGeometry x="150" y="700" width="60" height="60" as="geometry" />
        </mxCell>
        <mxCell id="gxjwXqbjO09iN7vLRab0-18" value="&lt;span style=&quot;font-size: 16px;&quot;&gt;Contest name&lt;/span&gt;&lt;div&gt;&lt;font style=&quot;font-size: 12px;&quot;&gt;Number of problems&lt;/font&gt;&lt;/div&gt;" style="shape=rectangle;strokeColor=#C4C4C4;fillColor=none;linkText=;fontSize=17;fontColor=#000000;fontStyle=0;html=1;align=left;labelBackgroundColor=none;rounded=0;shadow=0;glass=0;verticalAlign=middle;arcSize=50;fontFamily=Helvetica;spacing=8;" parent="ssX3Y0Y6o9wibVtlf6H6-1" vertex="1">
          <mxGeometry x="230" y="700" width="240" height="60" as="geometry" />
        </mxCell>
        <mxCell id="gxjwXqbjO09iN7vLRab0-19" value="&lt;font style=&quot;font-size: 16px;&quot;&gt;Icon&lt;/font&gt;" style="verticalLabelPosition=bottom;shadow=0;dashed=0;align=center;html=1;verticalAlign=top;strokeWidth=1;shape=mxgraph.mockup.graphics.simpleIcon;strokeColor=#C4C4C4;connectable=1;fillColor=none;fontFamily=Helvetica;" parent="ssX3Y0Y6o9wibVtlf6H6-1" vertex="1">
          <mxGeometry x="150" y="800" width="60" height="60" as="geometry" />
        </mxCell>
        <mxCell id="gxjwXqbjO09iN7vLRab0-20" value="&lt;span style=&quot;font-size: 16px;&quot;&gt;Contest name&lt;/span&gt;&lt;div&gt;&lt;font style=&quot;font-size: 12px;&quot;&gt;Number of problems&lt;/font&gt;&lt;/div&gt;" style="shape=rectangle;strokeColor=#C4C4C4;fillColor=none;linkText=;fontSize=17;fontColor=#000000;fontStyle=0;html=1;align=left;labelBackgroundColor=none;rounded=0;shadow=0;glass=0;verticalAlign=middle;arcSize=50;fontFamily=Helvetica;spacing=8;" parent="ssX3Y0Y6o9wibVtlf6H6-1" vertex="1">
          <mxGeometry x="230" y="800" width="240" height="60" as="geometry" />
        </mxCell>
        <mxCell id="WZUJX4IDuxBMOKNK7Ez7-1" value="Contests" style="text;html=1;align=left;verticalAlign=middle;whiteSpace=wrap;rounded=0;fontSize=24;spacing=8;" parent="ssX3Y0Y6o9wibVtlf6H6-1" vertex="1">
          <mxGeometry x="150" y="300" width="320" height="60" as="geometry" />
        </mxCell>
        <mxCell id="ljoC59RUV92372Guv3QU-1" value="&lt;font face=&quot;Comic Sans MS&quot;&gt;&lt;span style=&quot;font-size: 16px;&quot;&gt;Contest notes is left...&lt;/span&gt;&lt;/font&gt;" style="shape=note;whiteSpace=wrap;html=1;backgroundOutline=1;darkOpacity=0.05;align=left;verticalAlign=top;spacingRight=40;spacingLeft=8;spacingBottom=8;spacingTop=8;fillColor=#f8cecc;strokeColor=#b85450;" parent="1" vertex="1">
          <mxGeometry x="2000" y="40" width="280" height="120" as="geometry" />
        </mxCell>
      </root>
    </mxGraphModel>
  </diagram>
  <diagram id="53oUfvhqpb_FXZffMtDG" name="Contest">
    <mxGraphModel dx="1886" dy="892" grid="1" gridSize="10" guides="1" tooltips="1" connect="1" arrows="1" fold="1" page="1" pageScale="1" pageWidth="1920" pageHeight="1080" math="0" shadow="0">
      <root>
        <mxCell id="0" />
        <mxCell id="1" parent="0" />
        <mxCell id="Ay2hFSeWdY2V5d7Kx5u6-1" value="" style="strokeWidth=1;shadow=0;dashed=0;align=center;html=1;shape=mxgraph.mockup.containers.browserWindow;rSize=0;strokeColor=#C4C4C4;strokeColor2=#008cff;strokeColor3=#c4c4c4;mainText=,;recursiveResize=0;fillColor=default;comic=0;deletable=1;backgroundOutline=0;fontSize=15;fontFamily=Helvetica;" parent="1" vertex="1">
          <mxGeometry x="40" y="40" width="1920" height="1080" as="geometry" />
        </mxCell>
        <mxCell id="Ay2hFSeWdY2V5d7Kx5u6-2" value="ICPC Tehran" style="strokeWidth=1;shadow=0;dashed=0;align=center;html=1;shape=mxgraph.mockup.containers.anchor;fontSize=17;fontColor=#666666;align=left;whiteSpace=wrap;fontFamily=Helvetica;strokeColor=#C4C4C4;" parent="Ay2hFSeWdY2V5d7Kx5u6-1" vertex="1">
          <mxGeometry x="60" y="12" width="110" height="26" as="geometry" />
        </mxCell>
        <mxCell id="Ay2hFSeWdY2V5d7Kx5u6-3" value="https://www.icpc-tehran.ir" style="strokeWidth=1;shadow=0;dashed=0;align=center;html=1;shape=mxgraph.mockup.containers.anchor;rSize=0;fontSize=17;fontColor=#666666;align=left;fontFamily=Helvetica;strokeColor=#C4C4C4;" parent="Ay2hFSeWdY2V5d7Kx5u6-1" vertex="1">
          <mxGeometry x="130" y="60" width="250" height="26" as="geometry" />
        </mxCell>
        <mxCell id="Ay2hFSeWdY2V5d7Kx5u6-4" value="&lt;font style=&quot;font-size: 16px;&quot;&gt;Sign up / Profile&lt;/font&gt;" style="shape=rectangle;strokeColor=#C4C4C4;fillColor=none;linkText=;fontSize=17;fontColor=#000000;fontStyle=0;html=1;align=center;labelBackgroundColor=none;rounded=0;shadow=0;glass=0;verticalAlign=middle;arcSize=50;fontFamily=Helvetica;strokeWidth=1;" parent="Ay2hFSeWdY2V5d7Kx5u6-1" vertex="1">
          <mxGeometry x="1650" y="160" width="120" height="40" as="geometry" />
        </mxCell>
        <mxCell id="Ay2hFSeWdY2V5d7Kx5u6-5" value="&lt;font style=&quot;font-size: 16px;&quot;&gt;Sign in / Sign out&lt;/font&gt;" style="shape=rectangle;strokeColor=#C4C4C4;fillColor=none;linkText=;fontSize=17;fontColor=#000000;fontStyle=0;html=1;align=center;labelBackgroundColor=none;rounded=0;shadow=0;glass=0;verticalAlign=middle;arcSize=50;fontFamily=Helvetica;" parent="Ay2hFSeWdY2V5d7Kx5u6-1" vertex="1">
          <mxGeometry x="1520" y="160" width="120" height="40" as="geometry" />
        </mxCell>
        <mxCell id="Ay2hFSeWdY2V5d7Kx5u6-6" value="&lt;font style=&quot;font-size: 16px;&quot;&gt;Logo&lt;/font&gt;" style="verticalLabelPosition=bottom;shadow=0;dashed=0;align=center;html=1;verticalAlign=top;strokeWidth=1;shape=mxgraph.mockup.graphics.simpleIcon;strokeColor=#C4C4C4;connectable=1;fillColor=none;fontFamily=Helvetica;" parent="Ay2hFSeWdY2V5d7Kx5u6-1" vertex="1">
          <mxGeometry x="150" y="160" width="40" height="40" as="geometry" />
        </mxCell>
        <mxCell id="Ay2hFSeWdY2V5d7Kx5u6-7" value="&lt;span style=&quot;font-size: 16px;&quot;&gt;Contests&lt;/span&gt;" style="shape=rectangle;strokeColor=#C4C4C4;fillColor=none;linkText=;fontSize=17;fontColor=#000000;fontStyle=0;html=1;align=center;labelBackgroundColor=none;rounded=0;shadow=0;glass=0;verticalAlign=middle;arcSize=50;fontFamily=Helvetica;" parent="Ay2hFSeWdY2V5d7Kx5u6-1" vertex="1">
          <mxGeometry x="200" y="160" width="120" height="40" as="geometry" />
        </mxCell>
        <mxCell id="Ay2hFSeWdY2V5d7Kx5u6-11" value="&lt;span style=&quot;font-size: 16px;&quot;&gt;Problem name&lt;/span&gt;" style="shape=rectangle;strokeColor=#C4C4C4;fillColor=none;linkText=;fontSize=17;fontColor=#000000;fontStyle=0;html=1;align=left;labelBackgroundColor=none;rounded=0;shadow=0;glass=0;verticalAlign=middle;arcSize=50;fontFamily=Helvetica;spacing=8;" parent="Ay2hFSeWdY2V5d7Kx5u6-1" vertex="1">
          <mxGeometry x="230" y="400" width="240" height="60" as="geometry" />
        </mxCell>
        <mxCell id="Ay2hFSeWdY2V5d7Kx5u6-18" value="Problems" style="text;html=1;align=left;verticalAlign=middle;whiteSpace=wrap;rounded=0;fontSize=24;spacing=8;" parent="Ay2hFSeWdY2V5d7Kx5u6-1" vertex="1">
          <mxGeometry x="150" y="300" width="320" height="60" as="geometry" />
        </mxCell>
        <mxCell id="xBVR8hOqeEZraTt-LSm4-1" value="&lt;span style=&quot;font-size: 16px;&quot;&gt;Label&lt;/span&gt;" style="shape=rectangle;strokeColor=#C4C4C4;fillColor=none;linkText=;fontSize=17;fontColor=#000000;fontStyle=0;html=1;align=left;labelBackgroundColor=none;rounded=0;shadow=0;glass=0;verticalAlign=middle;arcSize=50;fontFamily=Helvetica;spacing=8;" parent="Ay2hFSeWdY2V5d7Kx5u6-1" vertex="1">
          <mxGeometry x="150" y="400" width="60" height="60" as="geometry" />
        </mxCell>
        <mxCell id="xBVR8hOqeEZraTt-LSm4-3" value="&lt;span style=&quot;font-size: 16px;&quot;&gt;Problem name&lt;/span&gt;" style="shape=rectangle;strokeColor=#C4C4C4;fillColor=none;linkText=;fontSize=17;fontColor=#000000;fontStyle=0;html=1;align=left;labelBackgroundColor=none;rounded=0;shadow=0;glass=0;verticalAlign=middle;arcSize=50;fontFamily=Helvetica;spacing=8;" parent="Ay2hFSeWdY2V5d7Kx5u6-1" vertex="1">
          <mxGeometry x="230" y="500" width="240" height="60" as="geometry" />
        </mxCell>
        <mxCell id="xBVR8hOqeEZraTt-LSm4-4" value="&lt;span style=&quot;font-size: 16px;&quot;&gt;Label&lt;/span&gt;" style="shape=rectangle;strokeColor=#C4C4C4;fillColor=none;linkText=;fontSize=17;fontColor=#000000;fontStyle=0;html=1;align=left;labelBackgroundColor=none;rounded=0;shadow=0;glass=0;verticalAlign=middle;arcSize=50;fontFamily=Helvetica;spacing=8;" parent="Ay2hFSeWdY2V5d7Kx5u6-1" vertex="1">
          <mxGeometry x="150" y="500" width="60" height="60" as="geometry" />
        </mxCell>
        <mxCell id="xBVR8hOqeEZraTt-LSm4-5" value="&lt;span style=&quot;font-size: 16px;&quot;&gt;Problem name&lt;/span&gt;" style="shape=rectangle;strokeColor=#C4C4C4;fillColor=none;linkText=;fontSize=17;fontColor=#000000;fontStyle=0;html=1;align=left;labelBackgroundColor=none;rounded=0;shadow=0;glass=0;verticalAlign=middle;arcSize=50;fontFamily=Helvetica;spacing=8;" parent="Ay2hFSeWdY2V5d7Kx5u6-1" vertex="1">
          <mxGeometry x="230" y="600" width="240" height="60" as="geometry" />
        </mxCell>
        <mxCell id="xBVR8hOqeEZraTt-LSm4-6" value="&lt;span style=&quot;font-size: 16px;&quot;&gt;Label&lt;/span&gt;" style="shape=rectangle;strokeColor=#C4C4C4;fillColor=none;linkText=;fontSize=17;fontColor=#000000;fontStyle=0;html=1;align=left;labelBackgroundColor=none;rounded=0;shadow=0;glass=0;verticalAlign=middle;arcSize=50;fontFamily=Helvetica;spacing=8;" parent="Ay2hFSeWdY2V5d7Kx5u6-1" vertex="1">
          <mxGeometry x="150" y="600" width="60" height="60" as="geometry" />
        </mxCell>
        <mxCell id="xBVR8hOqeEZraTt-LSm4-7" value="&lt;span style=&quot;font-size: 16px;&quot;&gt;Problem name&lt;/span&gt;" style="shape=rectangle;strokeColor=#C4C4C4;fillColor=none;linkText=;fontSize=17;fontColor=#000000;fontStyle=0;html=1;align=left;labelBackgroundColor=none;rounded=0;shadow=0;glass=0;verticalAlign=middle;arcSize=50;fontFamily=Helvetica;spacing=8;" parent="Ay2hFSeWdY2V5d7Kx5u6-1" vertex="1">
          <mxGeometry x="230" y="700" width="240" height="60" as="geometry" />
        </mxCell>
        <mxCell id="xBVR8hOqeEZraTt-LSm4-8" value="&lt;span style=&quot;font-size: 16px;&quot;&gt;Label&lt;/span&gt;" style="shape=rectangle;strokeColor=#C4C4C4;fillColor=none;linkText=;fontSize=17;fontColor=#000000;fontStyle=0;html=1;align=left;labelBackgroundColor=none;rounded=0;shadow=0;glass=0;verticalAlign=middle;arcSize=50;fontFamily=Helvetica;spacing=8;" parent="Ay2hFSeWdY2V5d7Kx5u6-1" vertex="1">
          <mxGeometry x="150" y="700" width="60" height="60" as="geometry" />
        </mxCell>
        <mxCell id="GgT7QN0rZ1rK8y5xLUBA-1" value="&lt;div style=&quot;&quot;&gt;&lt;span style=&quot;font-size: 16px; background-color: initial;&quot;&gt;Time&lt;/span&gt;&lt;/div&gt;&lt;div style=&quot;&quot;&gt;&lt;span style=&quot;font-size: 16px;&quot;&gt;Limit&lt;/span&gt;&lt;/div&gt;" style="shape=rectangle;strokeColor=#C4C4C4;fillColor=none;linkText=;fontSize=17;fontColor=#000000;fontStyle=0;html=1;align=center;labelBackgroundColor=none;rounded=0;shadow=0;glass=0;verticalAlign=middle;arcSize=50;fontFamily=Helvetica;spacing=8;" parent="Ay2hFSeWdY2V5d7Kx5u6-1" vertex="1">
          <mxGeometry x="490" y="400" width="80" height="60" as="geometry" />
        </mxCell>
        <mxCell id="GgT7QN0rZ1rK8y5xLUBA-2" value="&lt;span style=&quot;font-size: 16px;&quot;&gt;Memory&lt;/span&gt;&lt;div&gt;&lt;span style=&quot;font-size: 16px;&quot;&gt;Limit&lt;/span&gt;&lt;/div&gt;" style="shape=rectangle;strokeColor=#C4C4C4;fillColor=none;linkText=;fontSize=17;fontColor=#000000;fontStyle=0;html=1;align=center;labelBackgroundColor=none;rounded=0;shadow=0;glass=0;verticalAlign=middle;arcSize=50;fontFamily=Helvetica;spacing=8;" parent="Ay2hFSeWdY2V5d7Kx5u6-1" vertex="1">
          <mxGeometry x="590" y="400" width="80" height="60" as="geometry" />
        </mxCell>
        <mxCell id="GgT7QN0rZ1rK8y5xLUBA-3" value="&lt;div style=&quot;&quot;&gt;&lt;span style=&quot;font-size: 16px; background-color: initial;&quot;&gt;Time&lt;/span&gt;&lt;/div&gt;&lt;div style=&quot;&quot;&gt;&lt;span style=&quot;font-size: 16px;&quot;&gt;Limit&lt;/span&gt;&lt;/div&gt;" style="shape=rectangle;strokeColor=#C4C4C4;fillColor=none;linkText=;fontSize=17;fontColor=#000000;fontStyle=0;html=1;align=center;labelBackgroundColor=none;rounded=0;shadow=0;glass=0;verticalAlign=middle;arcSize=50;fontFamily=Helvetica;spacing=8;" parent="Ay2hFSeWdY2V5d7Kx5u6-1" vertex="1">
          <mxGeometry x="490" y="500" width="80" height="60" as="geometry" />
        </mxCell>
        <mxCell id="GgT7QN0rZ1rK8y5xLUBA-4" value="&lt;span style=&quot;font-size: 16px;&quot;&gt;Memory&lt;/span&gt;&lt;div&gt;&lt;span style=&quot;font-size: 16px;&quot;&gt;Limit&lt;/span&gt;&lt;/div&gt;" style="shape=rectangle;strokeColor=#C4C4C4;fillColor=none;linkText=;fontSize=17;fontColor=#000000;fontStyle=0;html=1;align=center;labelBackgroundColor=none;rounded=0;shadow=0;glass=0;verticalAlign=middle;arcSize=50;fontFamily=Helvetica;spacing=8;" parent="Ay2hFSeWdY2V5d7Kx5u6-1" vertex="1">
          <mxGeometry x="590" y="500" width="80" height="60" as="geometry" />
        </mxCell>
        <mxCell id="GgT7QN0rZ1rK8y5xLUBA-5" value="&lt;div style=&quot;&quot;&gt;&lt;span style=&quot;font-size: 16px; background-color: initial;&quot;&gt;Time&lt;/span&gt;&lt;/div&gt;&lt;div style=&quot;&quot;&gt;&lt;span style=&quot;font-size: 16px;&quot;&gt;Limit&lt;/span&gt;&lt;/div&gt;" style="shape=rectangle;strokeColor=#C4C4C4;fillColor=none;linkText=;fontSize=17;fontColor=#000000;fontStyle=0;html=1;align=center;labelBackgroundColor=none;rounded=0;shadow=0;glass=0;verticalAlign=middle;arcSize=50;fontFamily=Helvetica;spacing=8;" parent="Ay2hFSeWdY2V5d7Kx5u6-1" vertex="1">
          <mxGeometry x="490" y="600" width="80" height="60" as="geometry" />
        </mxCell>
        <mxCell id="GgT7QN0rZ1rK8y5xLUBA-6" value="&lt;span style=&quot;font-size: 16px;&quot;&gt;Memory&lt;/span&gt;&lt;div&gt;&lt;span style=&quot;font-size: 16px;&quot;&gt;Limit&lt;/span&gt;&lt;/div&gt;" style="shape=rectangle;strokeColor=#C4C4C4;fillColor=none;linkText=;fontSize=17;fontColor=#000000;fontStyle=0;html=1;align=center;labelBackgroundColor=none;rounded=0;shadow=0;glass=0;verticalAlign=middle;arcSize=50;fontFamily=Helvetica;spacing=8;" parent="Ay2hFSeWdY2V5d7Kx5u6-1" vertex="1">
          <mxGeometry x="590" y="600" width="80" height="60" as="geometry" />
        </mxCell>
        <mxCell id="GgT7QN0rZ1rK8y5xLUBA-7" value="&lt;div style=&quot;&quot;&gt;&lt;span style=&quot;font-size: 16px; background-color: initial;&quot;&gt;Time&lt;/span&gt;&lt;/div&gt;&lt;div style=&quot;&quot;&gt;&lt;span style=&quot;font-size: 16px;&quot;&gt;Limit&lt;/span&gt;&lt;/div&gt;" style="shape=rectangle;strokeColor=#C4C4C4;fillColor=none;linkText=;fontSize=17;fontColor=#000000;fontStyle=0;html=1;align=center;labelBackgroundColor=none;rounded=0;shadow=0;glass=0;verticalAlign=middle;arcSize=50;fontFamily=Helvetica;spacing=8;" parent="Ay2hFSeWdY2V5d7Kx5u6-1" vertex="1">
          <mxGeometry x="490" y="700" width="80" height="60" as="geometry" />
        </mxCell>
        <mxCell id="GgT7QN0rZ1rK8y5xLUBA-8" value="&lt;span style=&quot;font-size: 16px;&quot;&gt;Memory&lt;/span&gt;&lt;div&gt;&lt;span style=&quot;font-size: 16px;&quot;&gt;Limit&lt;/span&gt;&lt;/div&gt;" style="shape=rectangle;strokeColor=#C4C4C4;fillColor=none;linkText=;fontSize=17;fontColor=#000000;fontStyle=0;html=1;align=center;labelBackgroundColor=none;rounded=0;shadow=0;glass=0;verticalAlign=middle;arcSize=50;fontFamily=Helvetica;spacing=8;" parent="Ay2hFSeWdY2V5d7Kx5u6-1" vertex="1">
          <mxGeometry x="590" y="700" width="80" height="60" as="geometry" />
        </mxCell>
      </root>
    </mxGraphModel>
  </diagram>
  <diagram id="oB6kjKG4Yg0hezdmKiJ2" name="Problem">
    <mxGraphModel dx="1886" dy="892" grid="1" gridSize="10" guides="1" tooltips="1" connect="1" arrows="1" fold="1" page="1" pageScale="1" pageWidth="1920" pageHeight="1080" math="0" shadow="0">
      <root>
        <mxCell id="0" />
        <mxCell id="1" parent="0" />
        <mxCell id="JSfD7wVf37n-e8xCo0u8-1" value="" style="strokeWidth=1;shadow=0;dashed=0;align=center;html=1;shape=mxgraph.mockup.containers.browserWindow;rSize=0;strokeColor=#C4C4C4;strokeColor2=#008cff;strokeColor3=#c4c4c4;mainText=,;recursiveResize=0;fillColor=default;comic=0;deletable=1;backgroundOutline=0;fontSize=15;fontFamily=Helvetica;" parent="1" vertex="1">
          <mxGeometry x="40" y="40" width="1920" height="2080" as="geometry" />
        </mxCell>
        <mxCell id="JSfD7wVf37n-e8xCo0u8-2" value="ICPC Tehran" style="strokeWidth=1;shadow=0;dashed=0;align=center;html=1;shape=mxgraph.mockup.containers.anchor;fontSize=17;fontColor=#666666;align=left;whiteSpace=wrap;fontFamily=Helvetica;strokeColor=#C4C4C4;" parent="JSfD7wVf37n-e8xCo0u8-1" vertex="1">
          <mxGeometry x="60" y="12" width="110" height="26" as="geometry" />
        </mxCell>
        <mxCell id="JSfD7wVf37n-e8xCo0u8-3" value="https://www.icpc-tehran.ir" style="strokeWidth=1;shadow=0;dashed=0;align=center;html=1;shape=mxgraph.mockup.containers.anchor;rSize=0;fontSize=17;fontColor=#666666;align=left;fontFamily=Helvetica;strokeColor=#C4C4C4;" parent="JSfD7wVf37n-e8xCo0u8-1" vertex="1">
          <mxGeometry x="130" y="60" width="250" height="26" as="geometry" />
        </mxCell>
        <mxCell id="JSfD7wVf37n-e8xCo0u8-4" value="&lt;font style=&quot;font-size: 16px;&quot;&gt;Sign up / Profile&lt;/font&gt;" style="shape=rectangle;strokeColor=#C4C4C4;fillColor=none;linkText=;fontSize=17;fontColor=#000000;fontStyle=0;html=1;align=center;labelBackgroundColor=none;rounded=0;shadow=0;glass=0;verticalAlign=middle;arcSize=50;fontFamily=Helvetica;strokeWidth=1;" parent="JSfD7wVf37n-e8xCo0u8-1" vertex="1">
          <mxGeometry x="1650" y="160" width="120" height="40" as="geometry" />
        </mxCell>
        <mxCell id="JSfD7wVf37n-e8xCo0u8-5" value="&lt;font style=&quot;font-size: 16px;&quot;&gt;Sign in / Sign out&lt;/font&gt;" style="shape=rectangle;strokeColor=#C4C4C4;fillColor=none;linkText=;fontSize=17;fontColor=#000000;fontStyle=0;html=1;align=center;labelBackgroundColor=none;rounded=0;shadow=0;glass=0;verticalAlign=middle;arcSize=50;fontFamily=Helvetica;" parent="JSfD7wVf37n-e8xCo0u8-1" vertex="1">
          <mxGeometry x="1520" y="160" width="120" height="40" as="geometry" />
        </mxCell>
        <mxCell id="JSfD7wVf37n-e8xCo0u8-6" value="&lt;font style=&quot;font-size: 16px;&quot;&gt;Logo&lt;/font&gt;" style="verticalLabelPosition=bottom;shadow=0;dashed=0;align=center;html=1;verticalAlign=top;strokeWidth=1;shape=mxgraph.mockup.graphics.simpleIcon;strokeColor=#C4C4C4;connectable=1;fillColor=none;fontFamily=Helvetica;" parent="JSfD7wVf37n-e8xCo0u8-1" vertex="1">
          <mxGeometry x="150" y="160" width="40" height="40" as="geometry" />
        </mxCell>
        <mxCell id="JSfD7wVf37n-e8xCo0u8-7" value="&lt;span style=&quot;font-size: 16px;&quot;&gt;Contests&lt;/span&gt;" style="shape=rectangle;strokeColor=#C4C4C4;fillColor=none;linkText=;fontSize=17;fontColor=#000000;fontStyle=0;html=1;align=center;labelBackgroundColor=none;rounded=0;shadow=0;glass=0;verticalAlign=middle;arcSize=50;fontFamily=Helvetica;" parent="JSfD7wVf37n-e8xCo0u8-1" vertex="1">
          <mxGeometry x="200" y="160" width="120" height="40" as="geometry" />
        </mxCell>
        <mxCell id="JSfD7wVf37n-e8xCo0u8-8" value="&lt;font style=&quot;font-size: 16px;&quot;&gt;Lorem ipsum dolor sit amet, consectetur adipiscing elit, sed do eiusmod tempor incididunt ut labore et dolore magna aliqua. Ut enim ad minim veniam, quis nostrud exercitation ullamco laboris nisi ut aliquip ex ea commodo consequat. Duis aute irure dolor in reprehenderit in voluptate velit esse cillum dolore eu fugiat nulla pariatur. Excepteur sint occaecat cupidatat non proident, sunt in culpa qui officia deserunt mollit anim id est laborum.&lt;/font&gt;" style="shape=rectangle;strokeColor=none;fillColor=none;linkText=;fontSize=17;fontColor=#000000;fontStyle=0;html=1;align=left;labelBackgroundColor=none;rounded=0;shadow=0;glass=0;verticalAlign=top;arcSize=50;fontFamily=Helvetica;spacing=8;whiteSpace=wrap;" parent="JSfD7wVf37n-e8xCo0u8-1" vertex="1">
          <mxGeometry x="400" y="400" width="790" height="120" as="geometry" />
        </mxCell>
        <mxCell id="JSfD7wVf37n-e8xCo0u8-9" value="Problem name" style="text;html=1;align=left;verticalAlign=middle;whiteSpace=wrap;rounded=0;fontSize=24;spacing=8;strokeColor=none;" parent="JSfD7wVf37n-e8xCo0u8-1" vertex="1">
          <mxGeometry x="400" y="300" width="240" height="60" as="geometry" />
        </mxCell>
        <mxCell id="JSfD7wVf37n-e8xCo0u8-17" value="&lt;div style=&quot;&quot;&gt;&lt;span style=&quot;font-size: 16px; background-color: initial;&quot;&gt;Time&lt;/span&gt;&lt;/div&gt;&lt;div style=&quot;&quot;&gt;&lt;span style=&quot;font-size: 16px;&quot;&gt;Limit&lt;/span&gt;&lt;/div&gt;" style="shape=rectangle;strokeColor=#C4C4C4;fillColor=none;linkText=;fontSize=17;fontColor=#000000;fontStyle=0;html=1;align=center;labelBackgroundColor=none;rounded=0;shadow=0;glass=0;verticalAlign=middle;arcSize=50;fontFamily=Helvetica;spacing=8;" parent="JSfD7wVf37n-e8xCo0u8-1" vertex="1">
          <mxGeometry x="1340" y="290" width="80" height="60" as="geometry" />
        </mxCell>
        <mxCell id="JSfD7wVf37n-e8xCo0u8-18" value="&lt;span style=&quot;font-size: 16px;&quot;&gt;Memory&lt;/span&gt;&lt;div&gt;&lt;span style=&quot;font-size: 16px;&quot;&gt;Limit&lt;/span&gt;&lt;/div&gt;" style="shape=rectangle;strokeColor=#C4C4C4;fillColor=none;linkText=;fontSize=17;fontColor=#000000;fontStyle=0;html=1;align=center;labelBackgroundColor=none;rounded=0;shadow=0;glass=0;verticalAlign=middle;arcSize=50;fontFamily=Helvetica;spacing=8;" parent="JSfD7wVf37n-e8xCo0u8-1" vertex="1">
          <mxGeometry x="1440" y="290" width="80" height="60" as="geometry" />
        </mxCell>
        <mxCell id="ftgm2vq0NY9TqDVvR5ci-1" value="&lt;span style=&quot;font-size: 16px;&quot;&gt;Label&lt;/span&gt;" style="shape=rectangle;strokeColor=#C4C4C4;fillColor=none;linkText=;fontSize=17;fontColor=#000000;fontStyle=0;html=1;align=left;labelBackgroundColor=none;rounded=0;shadow=0;glass=0;verticalAlign=middle;arcSize=50;fontFamily=Helvetica;spacing=8;" parent="JSfD7wVf37n-e8xCo0u8-1" vertex="1">
          <mxGeometry x="320" y="300" width="60" height="60" as="geometry" />
        </mxCell>
        <mxCell id="yZCOn7bU9bdkFGeIlJ0D-2" value="&lt;font style=&quot;font-size: 16px;&quot;&gt;Lorem ipsum dolor sit amet, consectetur adipiscing elit, sed do eiusmod tempor incididunt ut labore et dolore magna aliqua. Ut enim ad minim veniam, quis nostrud exercitation ullamco laboris nisi ut aliquip ex ea commodo consequat. Duis aute irure dolor in reprehenderit in voluptate velit esse cillum dolore eu fugiat nulla pariatur. Excepteur sint occaecat cupidatat non proident, sunt in culpa qui officia deserunt mollit anim id est laborum.&lt;/font&gt;" style="shape=rectangle;strokeColor=none;fillColor=none;linkText=;fontSize=17;fontColor=#000000;fontStyle=0;html=1;align=left;labelBackgroundColor=none;rounded=0;shadow=0;glass=0;verticalAlign=top;arcSize=50;fontFamily=Helvetica;spacing=8;whiteSpace=wrap;" vertex="1" parent="JSfD7wVf37n-e8xCo0u8-1">
          <mxGeometry x="400" y="600" width="790" height="120" as="geometry" />
        </mxCell>
        <mxCell id="yZCOn7bU9bdkFGeIlJ0D-3" value="&lt;font style=&quot;font-size: 20px;&quot;&gt;Input&lt;/font&gt;" style="text;html=1;align=left;verticalAlign=middle;whiteSpace=wrap;rounded=0;fontSize=24;spacing=8;strokeColor=none;" vertex="1" parent="JSfD7wVf37n-e8xCo0u8-1">
          <mxGeometry x="400" y="540" width="240" height="40" as="geometry" />
        </mxCell>
        <mxCell id="yZCOn7bU9bdkFGeIlJ0D-5" value="&lt;font style=&quot;font-size: 20px;&quot;&gt;Output&lt;/font&gt;" style="text;html=1;align=left;verticalAlign=middle;whiteSpace=wrap;rounded=0;fontSize=24;spacing=8;strokeColor=none;" vertex="1" parent="JSfD7wVf37n-e8xCo0u8-1">
          <mxGeometry x="400" y="740" width="240" height="40" as="geometry" />
        </mxCell>
        <mxCell id="yZCOn7bU9bdkFGeIlJ0D-6" value="&lt;font style=&quot;font-size: 16px;&quot;&gt;Lorem ipsum dolor sit amet, consectetur adipiscing elit, sed do eiusmod tempor incididunt ut labore et dolore magna aliqua. Ut enim ad minim veniam, quis nostrud exercitation ullamco laboris nisi ut aliquip ex ea commodo consequat. Duis aute irure dolor in reprehenderit in voluptate velit esse cillum dolore eu fugiat nulla pariatur. Excepteur sint occaecat cupidatat non proident, sunt in culpa qui officia deserunt mollit anim id est laborum.&lt;/font&gt;" style="shape=rectangle;strokeColor=none;fillColor=none;linkText=;fontSize=17;fontColor=#000000;fontStyle=0;html=1;align=left;labelBackgroundColor=none;rounded=0;shadow=0;glass=0;verticalAlign=top;arcSize=50;fontFamily=Helvetica;spacing=8;whiteSpace=wrap;" vertex="1" parent="JSfD7wVf37n-e8xCo0u8-1">
          <mxGeometry x="400" y="800" width="790" height="120" as="geometry" />
        </mxCell>
        <mxCell id="yZCOn7bU9bdkFGeIlJ0D-8" value="&lt;div style=&quot;&quot;&gt;&lt;span style=&quot;font-size: 16px;&quot;&gt;Contest name&lt;/span&gt;&lt;/div&gt;" style="shape=rectangle;strokeColor=#C4C4C4;fillColor=none;linkText=;fontSize=17;fontColor=#000000;fontStyle=0;html=1;align=center;labelBackgroundColor=none;rounded=0;shadow=0;glass=0;verticalAlign=middle;arcSize=50;fontFamily=Helvetica;spacing=8;" vertex="1" parent="JSfD7wVf37n-e8xCo0u8-1">
          <mxGeometry x="1200" y="290" width="120" height="60" as="geometry" />
        </mxCell>
        <mxCell id="yZCOn7bU9bdkFGeIlJ0D-9" value="&lt;font style=&quot;font-size: 20px;&quot;&gt;Sample 1&lt;/font&gt;" style="text;html=1;align=left;verticalAlign=middle;whiteSpace=wrap;rounded=0;fontSize=24;spacing=8;strokeColor=none;" vertex="1" parent="JSfD7wVf37n-e8xCo0u8-1">
          <mxGeometry x="400" y="940" width="240" height="40" as="geometry" />
        </mxCell>
        <mxCell id="yZCOn7bU9bdkFGeIlJ0D-11" value="" style="shape=table;startSize=0;container=1;collapsible=0;childLayout=tableLayout;fontSize=16;align=left;spacing=8;strokeColor=#C4C4C4;" vertex="1" parent="JSfD7wVf37n-e8xCo0u8-1">
          <mxGeometry x="400" y="1000" width="600" height="160" as="geometry" />
        </mxCell>
        <mxCell id="yZCOn7bU9bdkFGeIlJ0D-12" value="" style="shape=tableRow;horizontal=0;startSize=0;swimlaneHead=0;swimlaneBody=0;strokeColor=inherit;top=0;left=0;bottom=0;right=0;collapsible=0;dropTarget=0;fillColor=none;points=[[0,0.5],[1,0.5]];portConstraint=eastwest;fontSize=16;" vertex="1" parent="yZCOn7bU9bdkFGeIlJ0D-11">
          <mxGeometry width="600" height="40" as="geometry" />
        </mxCell>
        <mxCell id="yZCOn7bU9bdkFGeIlJ0D-13" value="Standard input" style="shape=partialRectangle;html=1;whiteSpace=wrap;connectable=0;strokeColor=inherit;overflow=hidden;fillColor=none;top=0;left=0;bottom=0;right=0;pointerEvents=1;fontSize=16;align=left;spacing=8;" vertex="1" parent="yZCOn7bU9bdkFGeIlJ0D-12">
          <mxGeometry width="600" height="40" as="geometry">
            <mxRectangle width="600" height="40" as="alternateBounds" />
          </mxGeometry>
        </mxCell>
        <mxCell id="yZCOn7bU9bdkFGeIlJ0D-16" value="" style="shape=tableRow;horizontal=0;startSize=0;swimlaneHead=0;swimlaneBody=0;strokeColor=inherit;top=0;left=0;bottom=0;right=0;collapsible=0;dropTarget=0;fillColor=none;points=[[0,0.5],[1,0.5]];portConstraint=eastwest;fontSize=16;" vertex="1" parent="yZCOn7bU9bdkFGeIlJ0D-11">
          <mxGeometry y="40" width="600" height="40" as="geometry" />
        </mxCell>
        <mxCell id="yZCOn7bU9bdkFGeIlJ0D-17" value="&lt;font face=&quot;Courier New&quot;&gt;1 1 1 1&lt;/font&gt;" style="shape=partialRectangle;html=1;whiteSpace=wrap;connectable=0;strokeColor=inherit;overflow=hidden;fillColor=none;top=0;left=0;bottom=0;right=0;pointerEvents=1;fontSize=16;align=left;spacing=8;" vertex="1" parent="yZCOn7bU9bdkFGeIlJ0D-16">
          <mxGeometry width="600" height="40" as="geometry">
            <mxRectangle width="600" height="40" as="alternateBounds" />
          </mxGeometry>
        </mxCell>
        <mxCell id="yZCOn7bU9bdkFGeIlJ0D-32" style="shape=tableRow;horizontal=0;startSize=0;swimlaneHead=0;swimlaneBody=0;strokeColor=inherit;top=0;left=0;bottom=0;right=0;collapsible=0;dropTarget=0;fillColor=none;points=[[0,0.5],[1,0.5]];portConstraint=eastwest;fontSize=16;" vertex="1" parent="yZCOn7bU9bdkFGeIlJ0D-11">
          <mxGeometry y="80" width="600" height="40" as="geometry" />
        </mxCell>
        <mxCell id="yZCOn7bU9bdkFGeIlJ0D-33" value="Standard output" style="shape=partialRectangle;html=1;whiteSpace=wrap;connectable=0;strokeColor=inherit;overflow=hidden;fillColor=none;top=0;left=0;bottom=0;right=0;pointerEvents=1;fontSize=16;align=left;spacing=8;" vertex="1" parent="yZCOn7bU9bdkFGeIlJ0D-32">
          <mxGeometry width="600" height="40" as="geometry">
            <mxRectangle width="600" height="40" as="alternateBounds" />
          </mxGeometry>
        </mxCell>
        <mxCell id="yZCOn7bU9bdkFGeIlJ0D-34" style="shape=tableRow;horizontal=0;startSize=0;swimlaneHead=0;swimlaneBody=0;strokeColor=inherit;top=0;left=0;bottom=0;right=0;collapsible=0;dropTarget=0;fillColor=none;points=[[0,0.5],[1,0.5]];portConstraint=eastwest;fontSize=16;" vertex="1" parent="yZCOn7bU9bdkFGeIlJ0D-11">
          <mxGeometry y="120" width="600" height="40" as="geometry" />
        </mxCell>
        <mxCell id="yZCOn7bU9bdkFGeIlJ0D-35" value="&lt;font face=&quot;Courier New&quot;&gt;2 2 2 2&lt;/font&gt;" style="shape=partialRectangle;html=1;whiteSpace=wrap;connectable=0;strokeColor=inherit;overflow=hidden;fillColor=none;top=0;left=0;bottom=0;right=0;pointerEvents=1;fontSize=16;align=left;spacing=8;" vertex="1" parent="yZCOn7bU9bdkFGeIlJ0D-34">
          <mxGeometry width="600" height="40" as="geometry">
            <mxRectangle width="600" height="40" as="alternateBounds" />
          </mxGeometry>
        </mxCell>
        <mxCell id="yZCOn7bU9bdkFGeIlJ0D-36" value="&lt;font style=&quot;font-size: 20px;&quot;&gt;Sample 2&lt;/font&gt;" style="text;html=1;align=left;verticalAlign=middle;whiteSpace=wrap;rounded=0;fontSize=24;spacing=8;strokeColor=none;" vertex="1" parent="JSfD7wVf37n-e8xCo0u8-1">
          <mxGeometry x="400" y="1180" width="240" height="40" as="geometry" />
        </mxCell>
        <mxCell id="yZCOn7bU9bdkFGeIlJ0D-37" value="" style="shape=table;startSize=0;container=1;collapsible=0;childLayout=tableLayout;fontSize=16;align=left;spacing=8;strokeColor=#C4C4C4;" vertex="1" parent="JSfD7wVf37n-e8xCo0u8-1">
          <mxGeometry x="400" y="1240" width="600" height="160" as="geometry" />
        </mxCell>
        <mxCell id="yZCOn7bU9bdkFGeIlJ0D-38" value="" style="shape=tableRow;horizontal=0;startSize=0;swimlaneHead=0;swimlaneBody=0;strokeColor=inherit;top=0;left=0;bottom=0;right=0;collapsible=0;dropTarget=0;fillColor=none;points=[[0,0.5],[1,0.5]];portConstraint=eastwest;fontSize=16;" vertex="1" parent="yZCOn7bU9bdkFGeIlJ0D-37">
          <mxGeometry width="600" height="40" as="geometry" />
        </mxCell>
        <mxCell id="yZCOn7bU9bdkFGeIlJ0D-39" value="Standard input" style="shape=partialRectangle;html=1;whiteSpace=wrap;connectable=0;strokeColor=inherit;overflow=hidden;fillColor=none;top=0;left=0;bottom=0;right=0;pointerEvents=1;fontSize=16;align=left;spacing=8;" vertex="1" parent="yZCOn7bU9bdkFGeIlJ0D-38">
          <mxGeometry width="600" height="40" as="geometry">
            <mxRectangle width="600" height="40" as="alternateBounds" />
          </mxGeometry>
        </mxCell>
        <mxCell id="yZCOn7bU9bdkFGeIlJ0D-40" value="" style="shape=tableRow;horizontal=0;startSize=0;swimlaneHead=0;swimlaneBody=0;strokeColor=inherit;top=0;left=0;bottom=0;right=0;collapsible=0;dropTarget=0;fillColor=none;points=[[0,0.5],[1,0.5]];portConstraint=eastwest;fontSize=16;" vertex="1" parent="yZCOn7bU9bdkFGeIlJ0D-37">
          <mxGeometry y="40" width="600" height="40" as="geometry" />
        </mxCell>
        <mxCell id="yZCOn7bU9bdkFGeIlJ0D-41" value="&lt;font face=&quot;Courier New&quot;&gt;1 1 1 1&lt;/font&gt;" style="shape=partialRectangle;html=1;whiteSpace=wrap;connectable=0;strokeColor=inherit;overflow=hidden;fillColor=none;top=0;left=0;bottom=0;right=0;pointerEvents=1;fontSize=16;align=left;spacing=8;" vertex="1" parent="yZCOn7bU9bdkFGeIlJ0D-40">
          <mxGeometry width="600" height="40" as="geometry">
            <mxRectangle width="600" height="40" as="alternateBounds" />
          </mxGeometry>
        </mxCell>
        <mxCell id="yZCOn7bU9bdkFGeIlJ0D-42" style="shape=tableRow;horizontal=0;startSize=0;swimlaneHead=0;swimlaneBody=0;strokeColor=inherit;top=0;left=0;bottom=0;right=0;collapsible=0;dropTarget=0;fillColor=none;points=[[0,0.5],[1,0.5]];portConstraint=eastwest;fontSize=16;" vertex="1" parent="yZCOn7bU9bdkFGeIlJ0D-37">
          <mxGeometry y="80" width="600" height="40" as="geometry" />
        </mxCell>
        <mxCell id="yZCOn7bU9bdkFGeIlJ0D-43" value="Standard output" style="shape=partialRectangle;html=1;whiteSpace=wrap;connectable=0;strokeColor=inherit;overflow=hidden;fillColor=none;top=0;left=0;bottom=0;right=0;pointerEvents=1;fontSize=16;align=left;spacing=8;" vertex="1" parent="yZCOn7bU9bdkFGeIlJ0D-42">
          <mxGeometry width="600" height="40" as="geometry">
            <mxRectangle width="600" height="40" as="alternateBounds" />
          </mxGeometry>
        </mxCell>
        <mxCell id="yZCOn7bU9bdkFGeIlJ0D-44" style="shape=tableRow;horizontal=0;startSize=0;swimlaneHead=0;swimlaneBody=0;strokeColor=inherit;top=0;left=0;bottom=0;right=0;collapsible=0;dropTarget=0;fillColor=none;points=[[0,0.5],[1,0.5]];portConstraint=eastwest;fontSize=16;" vertex="1" parent="yZCOn7bU9bdkFGeIlJ0D-37">
          <mxGeometry y="120" width="600" height="40" as="geometry" />
        </mxCell>
        <mxCell id="yZCOn7bU9bdkFGeIlJ0D-45" value="&lt;font face=&quot;Courier New&quot;&gt;2 2 2 2&lt;/font&gt;" style="shape=partialRectangle;html=1;whiteSpace=wrap;connectable=0;strokeColor=inherit;overflow=hidden;fillColor=none;top=0;left=0;bottom=0;right=0;pointerEvents=1;fontSize=16;align=left;spacing=8;" vertex="1" parent="yZCOn7bU9bdkFGeIlJ0D-44">
          <mxGeometry width="600" height="40" as="geometry">
            <mxRectangle width="600" height="40" as="alternateBounds" />
          </mxGeometry>
        </mxCell>
        <mxCell id="yZCOn7bU9bdkFGeIlJ0D-47" value="&lt;font style=&quot;font-size: 20px;&quot;&gt;Submit&lt;/font&gt;" style="text;html=1;align=left;verticalAlign=middle;whiteSpace=wrap;rounded=0;fontSize=24;spacing=8;strokeColor=none;" vertex="1" parent="JSfD7wVf37n-e8xCo0u8-1">
          <mxGeometry x="400" y="1420" width="240" height="40" as="geometry" />
        </mxCell>
        <mxCell id="yZCOn7bU9bdkFGeIlJ0D-48" value="&lt;font color=&quot;#000000&quot;&gt;Language&lt;/font&gt;" style="strokeWidth=1;shadow=0;dashed=0;align=center;html=1;shape=mxgraph.mockup.forms.comboBox;strokeColor=#C4C4C4;fillColor=#ddeeff;align=left;fillColor2=#aaddff;mainText=;fontColor=#666666;fontSize=17;spacingLeft=3;" vertex="1" parent="JSfD7wVf37n-e8xCo0u8-1">
          <mxGeometry x="850" y="1430" width="150" height="30" as="geometry" />
        </mxCell>
        <mxCell id="yZCOn7bU9bdkFGeIlJ0D-49" value="&lt;font style=&quot;font-size: 16px;&quot; face=&quot;Courier New&quot;&gt;#include &amp;lt;bits/stdc++.h&amp;gt;&lt;/font&gt;&lt;div&gt;&lt;font style=&quot;font-size: 16px;&quot; face=&quot;Courier New&quot;&gt;&lt;br&gt;&lt;/font&gt;&lt;/div&gt;&lt;div&gt;&lt;font style=&quot;font-size: 16px;&quot; face=&quot;Courier New&quot;&gt;using namespace std;&lt;/font&gt;&lt;/div&gt;&lt;div&gt;&lt;font style=&quot;font-size: 16px;&quot; face=&quot;Courier New&quot;&gt;&lt;br&gt;&lt;/font&gt;&lt;/div&gt;&lt;div&gt;&lt;font style=&quot;font-size: 16px;&quot; face=&quot;Courier New&quot;&gt;int main() {&lt;/font&gt;&lt;/div&gt;&lt;div&gt;&lt;font style=&quot;font-size: 16px;&quot; face=&quot;Courier New&quot;&gt;&amp;nbsp; &amp;nbsp; cout &amp;lt;&amp;lt; &quot;hello, world&quot;;&lt;/font&gt;&lt;/div&gt;&lt;div&gt;&lt;font style=&quot;font-size: 16px;&quot; face=&quot;Courier New&quot;&gt;}&lt;/font&gt;&lt;/div&gt;" style="text;html=1;align=left;verticalAlign=top;whiteSpace=wrap;rounded=0;fontSize=24;spacing=8;strokeColor=#C4C4C4;" vertex="1" parent="JSfD7wVf37n-e8xCo0u8-1">
          <mxGeometry x="400" y="1480" width="600" height="300" as="geometry" />
        </mxCell>
      </root>
    </mxGraphModel>
  </diagram>
  <diagram id="3s9OPfDeTnat3wSL9hgp" name="Kattis">
    <mxGraphModel dx="2358" dy="1115" grid="1" gridSize="10" guides="1" tooltips="1" connect="1" arrows="1" fold="1" page="1" pageScale="1" pageWidth="1920" pageHeight="1080" math="0" shadow="0">
      <root>
        <mxCell id="0" />
        <mxCell id="1" parent="0" />
      </root>
    </mxGraphModel>
  </diagram>
  <diagram id="VssDHYvpB63pOMjZ1tE6" name="Atcoder">
    <mxGraphModel dx="-1954" dy="-188" grid="1" gridSize="10" guides="1" tooltips="1" connect="1" arrows="1" fold="1" page="1" pageScale="1" pageWidth="1920" pageHeight="1080" math="0" shadow="0">
      <root>
        <mxCell id="0" />
        <mxCell id="1" parent="0" />
        <mxCell id="bXzZC2VlI_823DSvaaab-1" value="" style="strokeWidth=1;shadow=0;dashed=0;align=center;html=1;shape=mxgraph.mockup.containers.browserWindow;rSize=0;strokeColor=#C4C4C4;strokeColor2=#008cff;strokeColor3=#c4c4c4;mainText=,;recursiveResize=0;fillColor=default;comic=0;deletable=1;backgroundOutline=0;fontSize=15;fontFamily=Helvetica;" parent="1" vertex="1">
          <mxGeometry x="3880" y="1120" width="1920" height="1080" as="geometry" />
        </mxCell>
        <mxCell id="bXzZC2VlI_823DSvaaab-2" value="AtCoder" style="strokeWidth=1;shadow=0;dashed=0;align=center;html=1;shape=mxgraph.mockup.containers.anchor;fontSize=17;fontColor=#666666;align=left;whiteSpace=wrap;fontFamily=Helvetica;strokeColor=#C4C4C4;" parent="bXzZC2VlI_823DSvaaab-1" vertex="1">
          <mxGeometry x="60" y="12" width="110" height="26" as="geometry" />
        </mxCell>
        <mxCell id="bXzZC2VlI_823DSvaaab-3" value="https://www.atcoder.jp" style="strokeWidth=1;shadow=0;dashed=0;align=center;html=1;shape=mxgraph.mockup.containers.anchor;rSize=0;fontSize=17;fontColor=#666666;align=left;fontFamily=Helvetica;strokeColor=#C4C4C4;" parent="bXzZC2VlI_823DSvaaab-1" vertex="1">
          <mxGeometry x="130" y="60" width="250" height="26" as="geometry" />
        </mxCell>
        <mxCell id="bXzZC2VlI_823DSvaaab-4" value="&lt;font style=&quot;font-size: 16px;&quot;&gt;Logo&lt;/font&gt;" style="verticalLabelPosition=bottom;shadow=0;dashed=0;align=center;html=1;verticalAlign=top;strokeWidth=1;shape=mxgraph.mockup.graphics.simpleIcon;strokeColor=#C4C4C4;connectable=1;fillColor=none;fontFamily=Helvetica;" parent="bXzZC2VlI_823DSvaaab-1" vertex="1">
          <mxGeometry x="150" y="180" width="40" height="40" as="geometry" />
        </mxCell>
        <mxCell id="bXzZC2VlI_823DSvaaab-5" value="" style="swimlane;shape=mxgraph.bootstrap.anchor;strokeColor=#C4C4C4;fillColor=#ffffff;fontColor=#000000;childLayout=stackLayout;horizontal=0;startSize=0;horizontalStack=1;resizeParent=1;resizeParentMax=0;resizeLast=0;collapsible=0;marginBottom=0;whiteSpace=wrap;html=1;" parent="bXzZC2VlI_823DSvaaab-1" vertex="1">
          <mxGeometry x="200" y="180" width="360" height="40" as="geometry" />
        </mxCell>
        <mxCell id="bXzZC2VlI_823DSvaaab-6" value="&lt;font style=&quot;font-size: 16px;&quot;&gt;Home&lt;/font&gt;" style="text;strokeColor=inherit;align=center;verticalAlign=middle;spacingLeft=10;spacingRight=10;overflow=hidden;points=[[0,0.5],[1,0.5]];portConstraint=eastwest;rotatable=0;whiteSpace=wrap;html=1;fillColor=inherit;fontColor=inherit;fontSize=17;" parent="bXzZC2VlI_823DSvaaab-5" vertex="1">
          <mxGeometry width="120" height="40" as="geometry" />
        </mxCell>
        <mxCell id="bXzZC2VlI_823DSvaaab-7" value="&lt;font style=&quot;font-size: 16px;&quot;&gt;Contest&lt;/font&gt;" style="text;strokeColor=inherit;align=center;verticalAlign=middle;spacingLeft=10;spacingRight=10;overflow=hidden;points=[[0,0.5],[1,0.5]];portConstraint=eastwest;rotatable=0;whiteSpace=wrap;html=1;fillColor=inherit;fontColor=inherit;fontSize=17;" parent="bXzZC2VlI_823DSvaaab-5" vertex="1">
          <mxGeometry x="120" width="120" height="40" as="geometry" />
        </mxCell>
        <mxCell id="bXzZC2VlI_823DSvaaab-8" value="&lt;font style=&quot;font-size: 16px;&quot;&gt;Ranking&lt;/font&gt;" style="text;strokeColor=inherit;align=center;verticalAlign=middle;spacingLeft=10;spacingRight=10;overflow=hidden;points=[[0,0.5],[1,0.5]];portConstraint=eastwest;rotatable=0;whiteSpace=wrap;html=1;fillColor=inherit;fontColor=inherit;fontSize=17;" parent="bXzZC2VlI_823DSvaaab-5" vertex="1">
          <mxGeometry x="240" width="120" height="40" as="geometry" />
        </mxCell>
        <mxCell id="bXzZC2VlI_823DSvaaab-9" value="&lt;font style=&quot;font-size: 16px;&quot;&gt;Search&lt;/font&gt;" style="shape=rectangle;strokeColor=#C4C4C4;fillColor=none;linkText=;fontSize=17;fontColor=#000000;fontStyle=0;html=1;align=center;labelBackgroundColor=none;rounded=0;shadow=0;glass=0;verticalAlign=middle;arcSize=50;fontFamily=Helvetica;" parent="bXzZC2VlI_823DSvaaab-1" vertex="1">
          <mxGeometry x="1650" y="310" width="120" height="40" as="geometry" />
        </mxCell>
        <mxCell id="bXzZC2VlI_823DSvaaab-10" value="&lt;h1 style=&quot;margin-top: 0px;&quot;&gt;&lt;font&gt;Contest Announcement&lt;/font&gt;&lt;/h1&gt;&lt;p&gt;&lt;font style=&quot;font-size: 16px;&quot;&gt;Lorem ipsum dolor sit amet consectetur adipiscing elit. Quisque faucibus ex sapien vitae pellentesque sem placerat. In id cursus mi pretium tellus duis convallis. Tempus leo eu aenean sed diam urna tempor. Pulvinar vivamus fringilla lacus nec metus bibendum egestas. Iaculis massa nisl malesuada lacinia integer nunc posuere. Ut hendrerit semper vel class aptent taciti sociosqu. Ad litora torquent per conubia nostra inceptos himenaeos&lt;/font&gt;&lt;/p&gt;" style="text;html=1;whiteSpace=wrap;overflow=hidden;rounded=0;strokeColor=none;" parent="bXzZC2VlI_823DSvaaab-1" vertex="1">
          <mxGeometry x="150" y="410" width="600" height="200" as="geometry" />
        </mxCell>
        <mxCell id="bXzZC2VlI_823DSvaaab-11" value="&lt;h1 style=&quot;margin-top: 0px;&quot;&gt;&lt;font&gt;Contest Announcement&lt;/font&gt;&lt;/h1&gt;&lt;p&gt;&lt;font style=&quot;font-size: 16px;&quot;&gt;Lorem ipsum dolor sit amet consectetur adipiscing elit. Quisque faucibus ex sapien vitae pellentesque sem placerat. In id cursus mi pretium tellus duis convallis. Tempus leo eu aenean sed diam urna tempor. Pulvinar vivamus fringilla lacus nec metus bibendum egestas. Iaculis massa nisl malesuada lacinia integer nunc posuere. Ut hendrerit semper vel class aptent taciti sociosqu. Ad litora torquent per conubia nostra inceptos himenaeos&lt;/font&gt;&lt;/p&gt;" style="text;html=1;whiteSpace=wrap;overflow=hidden;rounded=0;strokeColor=none;" parent="bXzZC2VlI_823DSvaaab-1" vertex="1">
          <mxGeometry x="150" y="660" width="600" height="200" as="geometry" />
        </mxCell>
        <mxCell id="bXzZC2VlI_823DSvaaab-12" value="Upcoming Contests" style="text;strokeColor=inherit;align=center;verticalAlign=middle;spacingLeft=10;spacingRight=10;overflow=hidden;points=[[0,0.5],[1,0.5]];portConstraint=eastwest;rotatable=0;whiteSpace=wrap;html=1;fillColor=inherit;fontColor=inherit;fontSize=17;" parent="bXzZC2VlI_823DSvaaab-1" vertex="1">
          <mxGeometry x="1470" y="410" width="300" height="100" as="geometry" />
        </mxCell>
        <mxCell id="bXzZC2VlI_823DSvaaab-13" value="Profile" style="text;strokeColor=inherit;align=center;verticalAlign=middle;spacingLeft=10;spacingRight=10;overflow=hidden;points=[[0,0.5],[1,0.5]];portConstraint=eastwest;rotatable=0;whiteSpace=wrap;html=1;fillColor=inherit;fontColor=inherit;fontSize=17;" parent="bXzZC2VlI_823DSvaaab-1" vertex="1">
          <mxGeometry x="1470" y="530" width="300" height="100" as="geometry" />
        </mxCell>
        <mxCell id="bXzZC2VlI_823DSvaaab-14" value="Top rated&lt;div&gt;Top contributors&lt;/div&gt;" style="text;strokeColor=inherit;align=center;verticalAlign=middle;spacingLeft=10;spacingRight=10;overflow=hidden;points=[[0,0.5],[1,0.5]];portConstraint=eastwest;rotatable=0;whiteSpace=wrap;html=1;fillColor=inherit;fontColor=inherit;fontSize=17;" parent="bXzZC2VlI_823DSvaaab-1" vertex="1">
          <mxGeometry x="1470" y="650" width="300" height="100" as="geometry" />
        </mxCell>
        <mxCell id="bXzZC2VlI_823DSvaaab-15" value="Find user" style="text;strokeColor=inherit;align=center;verticalAlign=middle;spacingLeft=10;spacingRight=10;overflow=hidden;points=[[0,0.5],[1,0.5]];portConstraint=eastwest;rotatable=0;whiteSpace=wrap;html=1;fillColor=inherit;fontColor=inherit;fontSize=17;" parent="bXzZC2VlI_823DSvaaab-1" vertex="1">
          <mxGeometry x="1470" y="770" width="300" height="100" as="geometry" />
        </mxCell>
        <mxCell id="bXzZC2VlI_823DSvaaab-16" value="Recent actions" style="text;strokeColor=inherit;align=center;verticalAlign=middle;spacingLeft=10;spacingRight=10;overflow=hidden;points=[[0,0.5],[1,0.5]];portConstraint=eastwest;rotatable=0;whiteSpace=wrap;html=1;fillColor=inherit;fontColor=inherit;fontSize=17;" parent="bXzZC2VlI_823DSvaaab-1" vertex="1">
          <mxGeometry x="1470" y="890" width="300" height="100" as="geometry" />
        </mxCell>
        <mxCell id="bXzZC2VlI_823DSvaaab-17" value="" style="swimlane;shape=mxgraph.bootstrap.anchor;strokeColor=#C4C4C4;fillColor=#ffffff;fontColor=#000000;childLayout=stackLayout;horizontal=0;startSize=0;horizontalStack=1;resizeParent=1;resizeParentMax=0;resizeLast=0;collapsible=0;marginBottom=0;whiteSpace=wrap;html=1;" parent="bXzZC2VlI_823DSvaaab-1" vertex="1">
          <mxGeometry x="1410" y="180" width="360" height="40" as="geometry" />
        </mxCell>
        <mxCell id="bXzZC2VlI_823DSvaaab-18" value="&lt;font style=&quot;font-size: 16px;&quot;&gt;Language&lt;/font&gt;" style="text;strokeColor=inherit;align=center;verticalAlign=middle;spacingLeft=10;spacingRight=10;overflow=hidden;points=[[0,0.5],[1,0.5]];portConstraint=eastwest;rotatable=0;whiteSpace=wrap;html=1;fillColor=inherit;fontColor=inherit;fontSize=17;" parent="bXzZC2VlI_823DSvaaab-17" vertex="1">
          <mxGeometry width="120" height="40" as="geometry" />
        </mxCell>
        <mxCell id="bXzZC2VlI_823DSvaaab-19" value="&lt;font style=&quot;font-size: 16px;&quot;&gt;Sign Up / -&lt;/font&gt;" style="text;strokeColor=inherit;align=center;verticalAlign=middle;spacingLeft=10;spacingRight=10;overflow=hidden;points=[[0,0.5],[1,0.5]];portConstraint=eastwest;rotatable=0;whiteSpace=wrap;html=1;fillColor=inherit;fontColor=inherit;fontSize=17;" parent="bXzZC2VlI_823DSvaaab-17" vertex="1">
          <mxGeometry x="120" width="120" height="40" as="geometry" />
        </mxCell>
        <mxCell id="bXzZC2VlI_823DSvaaab-20" value="&lt;font style=&quot;font-size: 16px;&quot;&gt;Sign In / Profile&lt;/font&gt;" style="text;strokeColor=inherit;align=center;verticalAlign=middle;spacingLeft=10;spacingRight=10;overflow=hidden;points=[[0,0.5],[1,0.5]];portConstraint=eastwest;rotatable=0;whiteSpace=wrap;html=1;fillColor=inherit;fontColor=inherit;fontSize=17;" parent="bXzZC2VlI_823DSvaaab-17" vertex="1">
          <mxGeometry x="240" width="120" height="40" as="geometry" />
        </mxCell>
      </root>
    </mxGraphModel>
  </diagram>
  <diagram id="zvJVEb7gZ6aiTMUWdq5t" name="Codeforces">
    <mxGraphModel dx="875" dy="2230" grid="1" gridSize="10" guides="1" tooltips="1" connect="1" arrows="1" fold="1" page="1" pageScale="1" pageWidth="1920" pageHeight="1080" math="0" shadow="0">
      <root>
        <mxCell id="0" />
        <mxCell id="1" parent="0" />
        <mxCell id="YKL3Q5UlP4vplH90tCDj-1" value="" style="strokeWidth=1;shadow=0;dashed=0;align=center;html=1;shape=mxgraph.mockup.containers.browserWindow;rSize=0;strokeColor=#C4C4C4;strokeColor2=#008cff;strokeColor3=#c4c4c4;mainText=,;recursiveResize=0;fillColor=default;comic=0;deletable=1;backgroundOutline=0;fontSize=15;fontFamily=Helvetica;" vertex="1" parent="1">
          <mxGeometry x="3880" y="40" width="1920" height="1080" as="geometry" />
        </mxCell>
        <mxCell id="YKL3Q5UlP4vplH90tCDj-2" value="Codeforces" style="strokeWidth=1;shadow=0;dashed=0;align=center;html=1;shape=mxgraph.mockup.containers.anchor;fontSize=17;fontColor=#666666;align=left;whiteSpace=wrap;fontFamily=Helvetica;strokeColor=#C4C4C4;" vertex="1" parent="YKL3Q5UlP4vplH90tCDj-1">
          <mxGeometry x="60" y="12" width="110" height="26" as="geometry" />
        </mxCell>
        <mxCell id="YKL3Q5UlP4vplH90tCDj-3" value="https://www.codeforces.com" style="strokeWidth=1;shadow=0;dashed=0;align=center;html=1;shape=mxgraph.mockup.containers.anchor;rSize=0;fontSize=17;fontColor=#666666;align=left;fontFamily=Helvetica;strokeColor=#C4C4C4;" vertex="1" parent="YKL3Q5UlP4vplH90tCDj-1">
          <mxGeometry x="130" y="60" width="250" height="26" as="geometry" />
        </mxCell>
        <mxCell id="YKL3Q5UlP4vplH90tCDj-4" value="&lt;font style=&quot;font-size: 16px;&quot;&gt;Register/Logout&lt;/font&gt;" style="shape=rectangle;strokeColor=#C4C4C4;fillColor=none;linkText=;fontSize=17;fontColor=#000000;fontStyle=0;html=1;align=center;labelBackgroundColor=none;rounded=0;shadow=0;glass=0;verticalAlign=middle;arcSize=50;fontFamily=Helvetica;strokeWidth=1;" vertex="1" parent="YKL3Q5UlP4vplH90tCDj-1">
          <mxGeometry x="1650" y="230" width="120" height="40" as="geometry" />
        </mxCell>
        <mxCell id="YKL3Q5UlP4vplH90tCDj-5" value="&lt;font style=&quot;font-size: 16px;&quot;&gt;Enter/Profile&lt;/font&gt;" style="shape=rectangle;strokeColor=#C4C4C4;fillColor=none;linkText=;fontSize=17;fontColor=#000000;fontStyle=0;html=1;align=center;labelBackgroundColor=none;rounded=0;shadow=0;glass=0;verticalAlign=middle;arcSize=50;fontFamily=Helvetica;" vertex="1" parent="YKL3Q5UlP4vplH90tCDj-1">
          <mxGeometry x="1520" y="230" width="120" height="40" as="geometry" />
        </mxCell>
        <mxCell id="YKL3Q5UlP4vplH90tCDj-6" value="&lt;font style=&quot;font-size: 16px;&quot;&gt;Logo&lt;/font&gt;" style="verticalLabelPosition=bottom;shadow=0;dashed=0;align=center;html=1;verticalAlign=top;strokeWidth=1;shape=mxgraph.mockup.graphics.simpleIcon;strokeColor=#C4C4C4;connectable=1;fillColor=none;fontFamily=Helvetica;" vertex="1" parent="YKL3Q5UlP4vplH90tCDj-1">
          <mxGeometry x="150" y="180" width="90" height="90" as="geometry" />
        </mxCell>
        <mxCell id="YKL3Q5UlP4vplH90tCDj-7" value="&lt;font style=&quot;font-size: 16px;&quot;&gt;Notifications&lt;/font&gt;" style="shape=rectangle;strokeColor=#C4C4C4;fillColor=none;linkText=;fontSize=17;fontColor=#000000;fontStyle=0;html=1;align=center;labelBackgroundColor=none;rounded=0;shadow=0;glass=0;verticalAlign=middle;arcSize=50;fontFamily=Helvetica;" vertex="1" parent="YKL3Q5UlP4vplH90tCDj-1">
          <mxGeometry x="1520" y="180" width="120" height="40" as="geometry" />
        </mxCell>
        <mxCell id="YKL3Q5UlP4vplH90tCDj-8" value="&lt;font style=&quot;font-size: 16px;&quot;&gt;Languages&lt;/font&gt;" style="shape=rectangle;strokeColor=#C4C4C4;fillColor=none;linkText=;fontSize=17;fontColor=#000000;fontStyle=0;html=1;align=center;labelBackgroundColor=none;rounded=0;shadow=0;glass=0;verticalAlign=middle;arcSize=50;fontFamily=Helvetica;strokeWidth=1;" vertex="1" parent="YKL3Q5UlP4vplH90tCDj-1">
          <mxGeometry x="1650" y="180" width="120" height="40" as="geometry" />
        </mxCell>
        <mxCell id="YKL3Q5UlP4vplH90tCDj-9" value="" style="swimlane;shape=mxgraph.bootstrap.anchor;strokeColor=#C4C4C4;fillColor=#ffffff;fontColor=#000000;childLayout=stackLayout;horizontal=0;startSize=0;horizontalStack=1;resizeParent=1;resizeParentMax=0;resizeLast=0;collapsible=0;marginBottom=0;whiteSpace=wrap;html=1;" vertex="1" parent="YKL3Q5UlP4vplH90tCDj-1">
          <mxGeometry x="150" y="310" width="1440" height="40" as="geometry" />
        </mxCell>
        <mxCell id="YKL3Q5UlP4vplH90tCDj-10" value="&lt;font style=&quot;font-size: 16px;&quot;&gt;Home&lt;/font&gt;" style="text;strokeColor=inherit;align=center;verticalAlign=middle;spacingLeft=10;spacingRight=10;overflow=hidden;points=[[0,0.5],[1,0.5]];portConstraint=eastwest;rotatable=0;whiteSpace=wrap;html=1;fillColor=inherit;fontColor=inherit;fontSize=17;" vertex="1" parent="YKL3Q5UlP4vplH90tCDj-9">
          <mxGeometry width="120" height="40" as="geometry" />
        </mxCell>
        <mxCell id="YKL3Q5UlP4vplH90tCDj-11" value="&lt;font style=&quot;font-size: 16px;&quot;&gt;Top&lt;/font&gt;" style="text;strokeColor=inherit;align=center;verticalAlign=middle;spacingLeft=10;spacingRight=10;overflow=hidden;points=[[0,0.5],[1,0.5]];portConstraint=eastwest;rotatable=0;whiteSpace=wrap;html=1;fillColor=inherit;fontColor=inherit;fontSize=17;" vertex="1" parent="YKL3Q5UlP4vplH90tCDj-9">
          <mxGeometry x="120" width="120" height="40" as="geometry" />
        </mxCell>
        <mxCell id="YKL3Q5UlP4vplH90tCDj-12" value="&lt;font style=&quot;font-size: 16px;&quot;&gt;Catalog&lt;/font&gt;" style="text;strokeColor=inherit;align=center;verticalAlign=middle;spacingLeft=10;spacingRight=10;overflow=hidden;points=[[0,0.5],[1,0.5]];portConstraint=eastwest;rotatable=0;whiteSpace=wrap;html=1;fillColor=inherit;fontColor=inherit;fontSize=17;" vertex="1" parent="YKL3Q5UlP4vplH90tCDj-9">
          <mxGeometry x="240" width="120" height="40" as="geometry" />
        </mxCell>
        <mxCell id="YKL3Q5UlP4vplH90tCDj-13" value="&lt;font style=&quot;font-size: 16px;&quot;&gt;Contests&lt;/font&gt;" style="text;strokeColor=inherit;align=center;verticalAlign=middle;spacingLeft=10;spacingRight=10;overflow=hidden;points=[[0,0.5],[1,0.5]];portConstraint=eastwest;rotatable=0;whiteSpace=wrap;html=1;fillColor=inherit;fontColor=inherit;fontSize=17;" vertex="1" parent="YKL3Q5UlP4vplH90tCDj-9">
          <mxGeometry x="360" width="120" height="40" as="geometry" />
        </mxCell>
        <mxCell id="YKL3Q5UlP4vplH90tCDj-14" value="&lt;font style=&quot;font-size: 16px;&quot;&gt;Gym&lt;/font&gt;" style="text;strokeColor=inherit;align=center;verticalAlign=middle;spacingLeft=10;spacingRight=10;overflow=hidden;points=[[0,0.5],[1,0.5]];portConstraint=eastwest;rotatable=0;whiteSpace=wrap;html=1;fillColor=inherit;fontColor=inherit;fontSize=17;" vertex="1" parent="YKL3Q5UlP4vplH90tCDj-9">
          <mxGeometry x="480" width="120" height="40" as="geometry" />
        </mxCell>
        <mxCell id="YKL3Q5UlP4vplH90tCDj-15" value="&lt;font style=&quot;font-size: 16px;&quot;&gt;Problemset&lt;/font&gt;" style="text;strokeColor=inherit;align=center;verticalAlign=middle;spacingLeft=10;spacingRight=10;overflow=hidden;points=[[0,0.5],[1,0.5]];portConstraint=eastwest;rotatable=0;whiteSpace=wrap;html=1;fillColor=inherit;fontColor=inherit;fontSize=17;" vertex="1" parent="YKL3Q5UlP4vplH90tCDj-9">
          <mxGeometry x="600" width="120" height="40" as="geometry" />
        </mxCell>
        <mxCell id="YKL3Q5UlP4vplH90tCDj-16" value="&lt;font style=&quot;font-size: 16px;&quot;&gt;Groups&lt;/font&gt;" style="text;strokeColor=inherit;align=center;verticalAlign=middle;spacingLeft=10;spacingRight=10;overflow=hidden;points=[[0,0.5],[1,0.5]];portConstraint=eastwest;rotatable=0;whiteSpace=wrap;html=1;fillColor=inherit;fontColor=inherit;fontSize=17;" vertex="1" parent="YKL3Q5UlP4vplH90tCDj-9">
          <mxGeometry x="720" width="120" height="40" as="geometry" />
        </mxCell>
        <mxCell id="YKL3Q5UlP4vplH90tCDj-17" value="&lt;font style=&quot;font-size: 16px;&quot;&gt;Rating&lt;/font&gt;" style="text;strokeColor=inherit;align=center;verticalAlign=middle;spacingLeft=10;spacingRight=10;overflow=hidden;points=[[0,0.5],[1,0.5]];portConstraint=eastwest;rotatable=0;whiteSpace=wrap;html=1;fillColor=inherit;fontColor=inherit;fontSize=17;" vertex="1" parent="YKL3Q5UlP4vplH90tCDj-9">
          <mxGeometry x="840" width="120" height="40" as="geometry" />
        </mxCell>
        <mxCell id="YKL3Q5UlP4vplH90tCDj-18" value="&lt;font style=&quot;font-size: 16px;&quot;&gt;Edu&lt;/font&gt;" style="text;strokeColor=inherit;align=center;verticalAlign=middle;spacingLeft=10;spacingRight=10;overflow=hidden;points=[[0,0.5],[1,0.5]];portConstraint=eastwest;rotatable=0;whiteSpace=wrap;html=1;fillColor=inherit;fontColor=inherit;fontSize=17;" vertex="1" parent="YKL3Q5UlP4vplH90tCDj-9">
          <mxGeometry x="960" width="120" height="40" as="geometry" />
        </mxCell>
        <mxCell id="YKL3Q5UlP4vplH90tCDj-19" value="&lt;font style=&quot;font-size: 16px;&quot;&gt;API&lt;/font&gt;" style="text;strokeColor=inherit;align=center;verticalAlign=middle;spacingLeft=10;spacingRight=10;overflow=hidden;points=[[0,0.5],[1,0.5]];portConstraint=eastwest;rotatable=0;whiteSpace=wrap;html=1;fillColor=inherit;fontColor=inherit;fontSize=17;" vertex="1" parent="YKL3Q5UlP4vplH90tCDj-9">
          <mxGeometry x="1080" width="120" height="40" as="geometry" />
        </mxCell>
        <mxCell id="YKL3Q5UlP4vplH90tCDj-20" value="&lt;font style=&quot;font-size: 16px;&quot;&gt;Calendar&lt;/font&gt;" style="text;strokeColor=inherit;align=center;verticalAlign=middle;spacingLeft=10;spacingRight=10;overflow=hidden;points=[[0,0.5],[1,0.5]];portConstraint=eastwest;rotatable=0;whiteSpace=wrap;html=1;fillColor=inherit;fontColor=inherit;fontSize=17;" vertex="1" parent="YKL3Q5UlP4vplH90tCDj-9">
          <mxGeometry x="1200" width="120" height="40" as="geometry" />
        </mxCell>
        <mxCell id="YKL3Q5UlP4vplH90tCDj-21" value="&lt;font style=&quot;font-size: 16px;&quot;&gt;Help&lt;/font&gt;" style="text;strokeColor=inherit;align=center;verticalAlign=middle;spacingLeft=10;spacingRight=10;overflow=hidden;points=[[0,0.5],[1,0.5]];portConstraint=eastwest;rotatable=0;whiteSpace=wrap;html=1;fillColor=inherit;fontColor=inherit;fontSize=17;" vertex="1" parent="YKL3Q5UlP4vplH90tCDj-9">
          <mxGeometry x="1320" width="120" height="40" as="geometry" />
        </mxCell>
        <mxCell id="YKL3Q5UlP4vplH90tCDj-22" value="&lt;font style=&quot;font-size: 16px;&quot;&gt;Search&lt;/font&gt;" style="shape=rectangle;strokeColor=#C4C4C4;fillColor=none;linkText=;fontSize=17;fontColor=#000000;fontStyle=0;html=1;align=center;labelBackgroundColor=none;rounded=0;shadow=0;glass=0;verticalAlign=middle;arcSize=50;fontFamily=Helvetica;" vertex="1" parent="YKL3Q5UlP4vplH90tCDj-1">
          <mxGeometry x="1650" y="310" width="120" height="40" as="geometry" />
        </mxCell>
        <mxCell id="YKL3Q5UlP4vplH90tCDj-23" value="&lt;h1 style=&quot;margin-top: 0px;&quot;&gt;&lt;font&gt;Contest Announcement&lt;/font&gt;&lt;/h1&gt;&lt;p&gt;&lt;font style=&quot;font-size: 16px;&quot;&gt;Lorem ipsum dolor sit amet consectetur adipiscing elit. Quisque faucibus ex sapien vitae pellentesque sem placerat. In id cursus mi pretium tellus duis convallis. Tempus leo eu aenean sed diam urna tempor. Pulvinar vivamus fringilla lacus nec metus bibendum egestas. Iaculis massa nisl malesuada lacinia integer nunc posuere. Ut hendrerit semper vel class aptent taciti sociosqu. Ad litora torquent per conubia nostra inceptos himenaeos&lt;/font&gt;&lt;/p&gt;" style="text;html=1;whiteSpace=wrap;overflow=hidden;rounded=0;strokeColor=none;" vertex="1" parent="YKL3Q5UlP4vplH90tCDj-1">
          <mxGeometry x="150" y="410" width="600" height="200" as="geometry" />
        </mxCell>
        <mxCell id="YKL3Q5UlP4vplH90tCDj-24" value="&lt;h1 style=&quot;margin-top: 0px;&quot;&gt;&lt;font&gt;Contest Announcement&lt;/font&gt;&lt;/h1&gt;&lt;p&gt;&lt;font style=&quot;font-size: 16px;&quot;&gt;Lorem ipsum dolor sit amet consectetur adipiscing elit. Quisque faucibus ex sapien vitae pellentesque sem placerat. In id cursus mi pretium tellus duis convallis. Tempus leo eu aenean sed diam urna tempor. Pulvinar vivamus fringilla lacus nec metus bibendum egestas. Iaculis massa nisl malesuada lacinia integer nunc posuere. Ut hendrerit semper vel class aptent taciti sociosqu. Ad litora torquent per conubia nostra inceptos himenaeos&lt;/font&gt;&lt;/p&gt;" style="text;html=1;whiteSpace=wrap;overflow=hidden;rounded=0;strokeColor=none;" vertex="1" parent="YKL3Q5UlP4vplH90tCDj-1">
          <mxGeometry x="150" y="660" width="600" height="200" as="geometry" />
        </mxCell>
        <mxCell id="YKL3Q5UlP4vplH90tCDj-25" value="Upcoming Contests" style="text;strokeColor=inherit;align=center;verticalAlign=middle;spacingLeft=10;spacingRight=10;overflow=hidden;points=[[0,0.5],[1,0.5]];portConstraint=eastwest;rotatable=0;whiteSpace=wrap;html=1;fillColor=inherit;fontColor=inherit;fontSize=17;" vertex="1" parent="YKL3Q5UlP4vplH90tCDj-1">
          <mxGeometry x="1470" y="410" width="300" height="100" as="geometry" />
        </mxCell>
        <mxCell id="YKL3Q5UlP4vplH90tCDj-26" value="Profile" style="text;strokeColor=inherit;align=center;verticalAlign=middle;spacingLeft=10;spacingRight=10;overflow=hidden;points=[[0,0.5],[1,0.5]];portConstraint=eastwest;rotatable=0;whiteSpace=wrap;html=1;fillColor=inherit;fontColor=inherit;fontSize=17;" vertex="1" parent="YKL3Q5UlP4vplH90tCDj-1">
          <mxGeometry x="1470" y="530" width="300" height="100" as="geometry" />
        </mxCell>
        <mxCell id="YKL3Q5UlP4vplH90tCDj-27" value="Top rated&lt;div&gt;Top contributors&lt;/div&gt;" style="text;strokeColor=inherit;align=center;verticalAlign=middle;spacingLeft=10;spacingRight=10;overflow=hidden;points=[[0,0.5],[1,0.5]];portConstraint=eastwest;rotatable=0;whiteSpace=wrap;html=1;fillColor=inherit;fontColor=inherit;fontSize=17;" vertex="1" parent="YKL3Q5UlP4vplH90tCDj-1">
          <mxGeometry x="1470" y="650" width="300" height="100" as="geometry" />
        </mxCell>
        <mxCell id="YKL3Q5UlP4vplH90tCDj-28" value="Find user" style="text;strokeColor=inherit;align=center;verticalAlign=middle;spacingLeft=10;spacingRight=10;overflow=hidden;points=[[0,0.5],[1,0.5]];portConstraint=eastwest;rotatable=0;whiteSpace=wrap;html=1;fillColor=inherit;fontColor=inherit;fontSize=17;" vertex="1" parent="YKL3Q5UlP4vplH90tCDj-1">
          <mxGeometry x="1470" y="770" width="300" height="100" as="geometry" />
        </mxCell>
        <mxCell id="YKL3Q5UlP4vplH90tCDj-29" value="Recent actions" style="text;strokeColor=inherit;align=center;verticalAlign=middle;spacingLeft=10;spacingRight=10;overflow=hidden;points=[[0,0.5],[1,0.5]];portConstraint=eastwest;rotatable=0;whiteSpace=wrap;html=1;fillColor=inherit;fontColor=inherit;fontSize=17;" vertex="1" parent="YKL3Q5UlP4vplH90tCDj-1">
          <mxGeometry x="1470" y="890" width="300" height="100" as="geometry" />
        </mxCell>
      </root>
    </mxGraphModel>
  </diagram>
</mxfile>
